#define Data_width 34
#define Data_height 32
static unsigned char Data_bits[] = {
   0x00, 0x00, 0x00, 0x00, 0x00, 0x00, 0x00, 0x00, 0x00, 0x00, 0x00, 0x00,
   0x00, 0x00, 0x00, 0x00, 0x00, 0x00, 0x00, 0x00, 0x00, 0xfe, 0x01, 0x00,
   0x00, 0x00, 0x02, 0x01, 0x00, 0x00, 0x00, 0x3a, 0x01, 0x00, 0x00, 0x00,
   0x02, 0x01, 0x00, 0x00, 0x00, 0xaa, 0x7f, 0x00, 0x00, 0x00, 0x82, 0x40,
   0x00, 0x00, 0x00, 0x9a, 0x5a, 0x00, 0x00, 0x00, 0x82, 0x40, 0x00, 0x00,
   0x00, 0x82, 0x4e, 0x00, 0x00, 0x00, 0xfe, 0x40, 0x00, 0x00, 0x00, 0x80,
   0x5e, 0x00, 0x00, 0x00, 0x80, 0x40, 0x00, 0x00, 0x00, 0x80, 0x40, 0x00,
   0x00, 0x00, 0x80, 0x7f, 0x00, 0x00, 0x00, 0x00, 0x00, 0x00, 0x00, 0x00,
   0x00, 0x00, 0x00, 0x00, 0x00, 0x00, 0x00, 0x00, 0x00, 0xf8, 0xe0, 0xfc,
   0x1c, 0x00, 0x98, 0xe1, 0x30, 0x1c, 0x00, 0x18, 0xb3, 0x31, 0x36, 0x00,
   0x18, 0xb3, 0x31, 0x36, 0x00, 0x18, 0xb3, 0x31, 0x36, 0x00, 0x18, 0xb3,
   0x31, 0x36, 0x00, 0x18, 0xfb, 0x33, 0x7f, 0x00, 0x98, 0x19, 0x33, 0x63,
   0x00, 0xf8, 0x18, 0x33, 0x63, 0x00, 0x00, 0x00, 0x00, 0x00, 0x00, 0x00,
   0x00, 0x00, 0x00, 0x00 };
