#define Time_width 34
#define Time_height 32
static unsigned char Time_bits[] = {
   0x00, 0x00, 0x00, 0x00, 0x00, 0x00, 0x00, 0x00, 0x00, 0x00, 0x00, 0x00,
   0x00, 0x00, 0x00, 0x00, 0x00, 0x00, 0x00, 0x00, 0x00, 0x00, 0x07, 0x00,
   0x00, 0x00, 0xc0, 0x18, 0x00, 0x00, 0x00, 0x20, 0x22, 0x00, 0x00, 0x00,
   0x10, 0x42, 0x00, 0x00, 0x00, 0x10, 0x42, 0x00, 0x00, 0x00, 0x08, 0x82,
   0x00, 0x00, 0x00, 0x08, 0x82, 0x00, 0x00, 0x00, 0x08, 0x84, 0x00, 0x00,
   0x00, 0x10, 0x48, 0x00, 0x00, 0x00, 0x10, 0x40, 0x00, 0x00, 0x00, 0x20,
   0x20, 0x00, 0x00, 0x00, 0xc0, 0x18, 0x00, 0x00, 0x00, 0x00, 0x07, 0x00,
   0x00, 0x00, 0x00, 0x00, 0x00, 0x00, 0x00, 0x00, 0x00, 0x00, 0x00, 0x00,
   0x00, 0x00, 0x00, 0x00, 0x00, 0x00, 0x00, 0x00, 0x00, 0xf0, 0xdb, 0x71,
   0x3f, 0x00, 0xc0, 0xd8, 0x71, 0x03, 0x00, 0xc0, 0xd8, 0x7b, 0x03, 0x00,
   0xc0, 0xd8, 0x7b, 0x03, 0x00, 0xc0, 0xd8, 0x6a, 0x3f, 0x00, 0xc0, 0xd8,
   0x6a, 0x03, 0x00, 0xc0, 0xd8, 0x6e, 0x03, 0x00, 0xc0, 0xd8, 0x6e, 0x03,
   0x00, 0xc0, 0xd8, 0x64, 0x3f, 0x00, 0x00, 0x00, 0x00, 0x00, 0x00, 0x00,
   0x00, 0x00, 0x00, 0x00 };
