solid LED Shroud
facet normal 0.0 0.0 -1.0
  outer loop
    vertex 0.0 25.800000000000004 0.0
    vertex 1.017563582781454 18.028871730242603 0.0
    vertex 0.0 0.0 0.0
  endloop
endfacet
facet normal 0.0 0.0 -1.0
  outer loop
    vertex 1.017563582781454 18.028871730242603 0.0
    vertex 0.0 25.800000000000004 0.0
    vertex 1.1273127414495212 18.4047558930785 0.0
  endloop
endfacet
facet normal 0.0 0.0 -1.0
  outer loop
    vertex 1.1273127414495212 18.4047558930785 0.0
    vertex 0.0 25.800000000000004 0.0
    vertex 5.0 25.800000000000004 0.0
  endloop
endfacet
facet normal 0.0 0.0 -1.0
  outer loop
    vertex 0.0 0.0 0.0
    vertex 1.017563582781454 18.028871730242603 0.0
    vertex 1.008840016104819 17.637390337219088 0.0
  endloop
endfacet
facet normal 0.0 0.0 -1.0
  outer loop
    vertex 0.0 0.0 0.0
    vertex 1.008840016104819 17.637390337219088 0.0
    vertex 1.0001385335674147 9.820385816409846 0.0
  endloop
endfacet
facet normal 0.0 0.0 -1.0
  outer loop
    vertex 1.0001385335674147 9.820385816409846 0.0
    vertex 1.008840016104819 17.637390337219088 0.0
    vertex 1.0083195954971529 13.957764288805242 0.0
  endloop
endfacet
facet normal 0.0 0.0 -1.0
  outer loop
    vertex 1.008840016104819 17.637390337219088 0.0
    vertex 1.017563582781454 18.028871730242603 0.0
    vertex 1.0124635248099931 17.800000000000004 0.0
  endloop
endfacet
facet normal 0.0 0.0 -1.0
  outer loop
    vertex 1.1273127414495212 18.4047558930785 0.0
    vertex 5.0 25.800000000000004 0.0
    vertex 1.3306082683148515 18.73942694120747 0.0
  endloop
endfacet
facet normal 0.0 0.0 -1.0
  outer loop
    vertex 1.3306082683148515 18.73942694120747 0.0
    vertex 5.0 25.800000000000004 0.0
    vertex 1.6135959091833159 19.010077595769566 0.0
  endloop
endfacet
facet normal 0.0 0.0 -1.0
  outer loop
    vertex 1.6135959091833159 19.010077595769566 0.0
    vertex 5.0 25.800000000000004 0.0
    vertex 1.9569905239889172 19.198263461927752 0.0
  endloop
endfacet
facet normal 0.0 0.0 -1.0
  outer loop
    vertex 1.9569905239889172 19.198263461927752 0.0
    vertex 5.0 25.800000000000004 0.0
    vertex 2.3373903372190847 19.291159983895184 0.0
  endloop
endfacet
facet normal 0.0 0.0 -1.0
  outer loop
    vertex 2.3373903372190847 19.291159983895184 0.0
    vertex 5.0 25.800000000000004 0.0
    vertex 2.5000000000000004 19.28753647519001 0.0
  endloop
endfacet
facet normal 0.0 0.0 -1.0
  outer loop
    vertex 2.5000000000000004 19.28753647519001 0.0
    vertex 5.0 25.800000000000004 0.0
    vertex 2.728871730242599 19.28243641721855 0.0
  endloop
endfacet
facet normal 0.0 0.0 -1.0
  outer loop
    vertex 2.728871730242599 19.28243641721855 0.0
    vertex 5.0 25.800000000000004 0.0
    vertex 3.1047558930784978 19.172687258550482 0.0
  endloop
endfacet
facet normal 0.0 0.0 -1.0
  outer loop
    vertex 3.1047558930784978 19.172687258550482 0.0
    vertex 5.0 25.800000000000004 0.0
    vertex 3.4394269412074627 18.969391731685153 0.0
  endloop
endfacet
facet normal 0.0 0.0 -1.0
  outer loop
    vertex 3.4394269412074627 18.969391731685153 0.0
    vertex 5.0 25.800000000000004 0.0
    vertex 3.710077595769564 18.68640409081669 0.0
  endloop
endfacet
facet normal 0.0 0.0 -1.0
  outer loop
    vertex 3.710077595769564 18.68640409081669 0.0
    vertex 5.0 25.800000000000004 0.0
    vertex 3.898263461927748 18.343009476011087 0.0
  endloop
endfacet
facet normal 0.0 0.0 -1.0
  outer loop
    vertex 3.898263461927748 18.343009476011087 0.0
    vertex 5.0 25.800000000000004 0.0
    vertex 3.9911599838951823 17.96260966278092 0.0
  endloop
endfacet
facet normal 0.0 0.0 -1.0
  outer loop
    vertex 3.9911599838951823 17.96260966278092 0.0
    vertex 5.0 25.800000000000004 0.0
    vertex 3.9916804045028482 13.642235711194763 0.0
  endloop
endfacet
facet normal 0.0 0.0 -1.0
  outer loop
    vertex 3.9916804045028482 13.642235711194763 0.0
    vertex 5.0 25.800000000000004 0.0
    vertex 3.9998614664325864 9.779614183590162 0.0
  endloop
endfacet
facet normal 0.0 0.0 -1.0
  outer loop
    vertex 0.0 0.0 0.0
    vertex 1.1908889597070782 9.06772390167152 0.0
    vertex 5.0 0.0 0.0
  endloop
endfacet
facet normal 0.0 0.0 -1.0
  outer loop
    vertex 1.1908889597070782 9.06772390167152 0.0
    vertex 0.0 0.0 0.0
    vertex 1.0459688361801402 9.431498474032109 0.0
  endloop
endfacet
facet normal 0.0 0.0 -1.0
  outer loop
    vertex 1.0459688361801402 9.431498474032109 0.0
    vertex 0.0 0.0 0.0
    vertex 1.0001385335674147 9.820385816409846 0.0
  endloop
endfacet
facet normal 0.0 0.0 -1.0
  outer loop
    vertex 5.0 0.0 0.0
    vertex 1.1908889597070782 9.06772390167152 0.0
    vertex 1.425022837221696 8.753852735268545 0.0
  endloop
endfacet
facet normal 0.0 0.0 -1.0
  outer loop
    vertex 5.0 0.0 0.0
    vertex 1.425022837221696 8.753852735268545 0.0
    vertex 1.732414631895898 8.511274776116924 0.0
  endloop
endfacet
facet normal 0.0 0.0 -1.0
  outer loop
    vertex 5.0 0.0 0.0
    vertex 1.732414631895898 8.511274776116924 0.0
    vertex 2.0921161009115976 8.356521311253806 0.0
  endloop
endfacet
facet normal 0.0 0.0 -1.0
  outer loop
    vertex 5.0 0.0 0.0
    vertex 2.0921161009115976 8.356521311253806 0.0
    vertex 2.479614183590159 8.300138533567418 0.0
  endloop
endfacet
facet normal 0.0 0.0 -1.0
  outer loop
    vertex 5.0 0.0 0.0
    vertex 2.479614183590159 8.300138533567418 0.0
    vertex 2.868501525967895 8.345968836180143 0.0
  endloop
endfacet
facet normal 0.0 0.0 -1.0
  outer loop
    vertex 5.0 0.0 0.0
    vertex 2.868501525967895 8.345968836180143 0.0
    vertex 3.2322760983284837 8.490888959707082 0.0
  endloop
endfacet
facet normal 0.0 0.0 -1.0
  outer loop
    vertex 5.0 0.0 0.0
    vertex 3.2322760983284837 8.490888959707082 0.0
    vertex 3.5461472647314585 8.7250228372217 0.0
  endloop
endfacet
facet normal 0.0 0.0 -1.0
  outer loop
    vertex 5.0 0.0 0.0
    vertex 3.5461472647314585 8.7250228372217 0.0
    vertex 3.78872522388308 9.032414631895902 0.0
  endloop
endfacet
facet normal 0.0 0.0 -1.0
  outer loop
    vertex 5.0 0.0 0.0
    vertex 3.78872522388308 9.032414631895902 0.0
    vertex 3.9434786887461986 9.3921161009116 0.0
  endloop
endfacet
facet normal 0.0 0.0 -1.0
  outer loop
    vertex 5.0 0.0 0.0
    vertex 3.9434786887461986 9.3921161009116 0.0
    vertex 3.9998614664325864 9.779614183590162 0.0
  endloop
endfacet
facet normal 0.0 0.0 -1.0
  outer loop
    vertex 5.0 0.0 0.0
    vertex 3.9998614664325864 9.779614183590162 0.0
    vertex 5.0 25.800000000000004 0.0
  endloop
endfacet
facet normal 0.0 0.0 -1.0
  outer loop
    vertex 1.0083195954971529 13.957764288805242 0.0
    vertex 1.0565213112538019 10.207883899088406 0.0
    vertex 1.0001385335674147 9.820385816409846 0.0
  endloop
endfacet
facet normal 0.0 0.0 -1.0
  outer loop
    vertex 1.0565213112538019 10.207883899088406 0.0
    vertex 1.0083195954971529 13.957764288805242 0.0
    vertex 1.018314970141525 13.566313303131542 0.0
  endloop
endfacet
facet normal 0.0 0.0 -1.0
  outer loop
    vertex 1.0565213112538019 10.207883899088406 0.0
    vertex 1.018314970141525 13.566313303131542 0.0
    vertex 1.129284730970467 13.1907876796639 0.0
  endloop
endfacet
facet normal 0.0 0.0 -1.0
  outer loop
    vertex 1.0565213112538019 10.207883899088406 0.0
    vertex 1.129284730970467 13.1907876796639 0.0
    vertex 1.2112747761169214 10.567585368104105 0.0
  endloop
endfacet
facet normal 0.0 0.0 -1.0
  outer loop
    vertex 1.2112747761169214 10.567585368104105 0.0
    vertex 1.129284730970467 13.1907876796639 0.0
    vertex 1.3336664721696863 12.856778869056207 0.0
  endloop
endfacet
facet normal 0.0 0.0 -1.0
  outer loop
    vertex 1.2112747761169214 10.567585368104105 0.0
    vertex 1.3336664721696863 12.856778869056207 0.0
    vertex 1.4538527352685429 10.874977162778308 0.0
  endloop
endfacet
facet normal 0.0 0.0 -1.0
  outer loop
    vertex 1.4538527352685429 10.874977162778308 0.0
    vertex 1.3336664721696863 12.856778869056207 0.0
    vertex 1.5000000000000004 12.698728220788016 0.0
  endloop
endfacet
facet normal 0.0 0.0 -1.0
  outer loop
    vertex 1.4538527352685429 10.874977162778308 0.0
    vertex 1.5000000000000004 12.698728220788016 0.0
    vertex 1.5000000000000004 10.90940096204631 0.0
  endloop
endfacet
facet normal 0.0 0.0 -1.0
  outer loop
    vertex 1.5000000000000004 10.90940096204631 0.0
    vertex 1.5000000000000004 12.698728220788016 0.0
    vertex 1.6175319158332537 12.58704901977571 0.0
  endloop
endfacet
facet normal 0.0 0.0 -1.0
  outer loop
    vertex 1.5000000000000004 10.90940096204631 0.0
    vertex 1.6175319158332537 12.58704901977571 0.0
    vertex 1.7677239016715167 11.109111040292925 0.0
  endloop
endfacet
facet normal 0.0 0.0 -1.0
  outer loop
    vertex 1.7677239016715167 11.109111040292925 0.0
    vertex 1.6175319158332537 12.58704901977571 0.0
    vertex 1.9615361010853225 12.39997977530123 0.0
  endloop
endfacet
facet normal 0.0 0.0 -1.0
  outer loop
    vertex 1.7677239016715167 11.109111040292925 0.0
    vertex 1.9615361010853225 12.39997977530123 0.0
    vertex 2.1314984740321057 11.254031163819862 0.0
  endloop
endfacet
facet normal 0.0 0.0 -1.0
  outer loop
    vertex 2.1314984740321057 11.254031163819862 0.0
    vertex 1.9615361010853225 12.39997977530123 0.0
    vertex 2.3422357111947614 12.308319595497155 0.0
  endloop
endfacet
facet normal 0.0 0.0 -1.0
  outer loop
    vertex 2.1314984740321057 11.254031163819862 0.0
    vertex 2.3422357111947614 12.308319595497155 0.0
    vertex 2.5203858164098425 11.299861466432588 0.0
  endloop
endfacet
facet normal 0.0 0.0 -1.0
  outer loop
    vertex 2.5203858164098425 11.299861466432588 0.0
    vertex 2.3422357111947614 12.308319595497155 0.0
    vertex 2.5000000000000004 12.312347975115099 0.0
  endloop
endfacet
facet normal 0.0 0.0 -1.0
  outer loop
    vertex 2.5203858164098425 11.299861466432588 0.0
    vertex 2.5000000000000004 12.312347975115099 0.0
    vertex 2.7336866968684608 12.318314970141529 0.0
  endloop
endfacet
facet normal 0.0 0.0 -1.0
  outer loop
    vertex 2.5203858164098425 11.299861466432588 0.0
    vertex 2.7336866968684608 12.318314970141529 0.0
    vertex 2.9078838990884033 11.243478688746201 0.0
  endloop
endfacet
facet normal 0.0 0.0 -1.0
  outer loop
    vertex 2.9078838990884033 11.243478688746201 0.0
    vertex 2.7336866968684608 12.318314970141529 0.0
    vertex 3.1092123203361015 12.429284730970469 0.0
  endloop
endfacet
facet normal 0.0 0.0 -1.0
  outer loop
    vertex 2.9078838990884033 11.243478688746201 0.0
    vertex 3.1092123203361015 12.429284730970469 0.0
    vertex 3.267585368104102 11.088725223883083 0.0
  endloop
endfacet
facet normal 0.0 0.0 -1.0
  outer loop
    vertex 3.267585368104102 11.088725223883083 0.0
    vertex 3.1092123203361015 12.429284730970469 0.0
    vertex 3.4432211309437983 12.63366647216969 0.0
  endloop
endfacet
facet normal 0.0 0.0 -1.0
  outer loop
    vertex 3.267585368104102 11.088725223883083 0.0
    vertex 3.4432211309437983 12.63366647216969 0.0
    vertex 3.5749771627783047 10.84614726473146 0.0
  endloop
endfacet
facet normal 0.0 0.0 -1.0
  outer loop
    vertex 3.5749771627783047 10.84614726473146 0.0
    vertex 3.4432211309437983 12.63366647216969 0.0
    vertex 3.712950980224294 12.917531915833255 0.0
  endloop
endfacet
facet normal 0.0 0.0 -1.0
  outer loop
    vertex 3.5749771627783047 10.84614726473146 0.0
    vertex 3.712950980224294 12.917531915833255 0.0
    vertex 3.809111040292922 10.532276098328486 0.0
  endloop
endfacet
facet normal 0.0 0.0 -1.0
  outer loop
    vertex 3.809111040292922 10.532276098328486 0.0
    vertex 3.712950980224294 12.917531915833255 0.0
    vertex 3.9000202246987743 13.261536101085325 0.0
  endloop
endfacet
facet normal 0.0 0.0 -1.0
  outer loop
    vertex 3.809111040292922 10.532276098328486 0.0
    vertex 3.9000202246987743 13.261536101085325 0.0
    vertex 3.954031163819861 10.168501525967898 0.0
  endloop
endfacet
facet normal 0.0 0.0 -1.0
  outer loop
    vertex 3.954031163819861 10.168501525967898 0.0
    vertex 3.9000202246987743 13.261536101085325 0.0
    vertex 3.9916804045028482 13.642235711194763 0.0
  endloop
endfacet
facet normal 0.0 0.0 -1.0
  outer loop
    vertex 3.954031163819861 10.168501525967898 0.0
    vertex 3.9916804045028482 13.642235711194763 0.0
    vertex 3.9998614664325864 9.779614183590162 0.0
  endloop
endfacet
facet normal 0.0 0.0 -1.0
  outer loop
    vertex 1.008840016104819 17.637390337219088 0.0
    vertex 1.0999797753012264 14.33846389891468 0.0
    vertex 1.0083195954971529 13.957764288805242 0.0
  endloop
endfacet
facet normal 0.0 0.0 -1.0
  outer loop
    vertex 1.0999797753012264 14.33846389891468 0.0
    vertex 1.008840016104819 17.637390337219088 0.0
    vertex 1.1017365380722526 17.25699052398892 0.0
  endloop
endfacet
facet normal 0.0 0.0 -1.0
  outer loop
    vertex 1.0999797753012264 14.33846389891468 0.0
    vertex 1.1017365380722526 17.25699052398892 0.0
    vertex 1.2870490197757074 14.68246808416675 0.0
  endloop
endfacet
facet normal 0.0 0.0 -1.0
  outer loop
    vertex 1.2870490197757074 14.68246808416675 0.0
    vertex 1.1017365380722526 17.25699052398892 0.0
    vertex 1.2899224042304362 16.91359590918332 0.0
  endloop
endfacet
facet normal 0.0 0.0 -1.0
  outer loop
    vertex 1.2870490197757074 14.68246808416675 0.0
    vertex 1.2899224042304362 16.91359590918332 0.0
    vertex 1.5000000000000004 14.906579077596692 0.0
  endloop
endfacet
facet normal 0.0 0.0 -1.0
  outer loop
    vertex 1.5000000000000004 14.906579077596692 0.0
    vertex 1.2899224042304362 16.91359590918332 0.0
    vertex 1.5000000000000004 16.693942410386747 0.0
  endloop
endfacet
facet normal 0.0 0.0 -1.0
  outer loop
    vertex 1.5000000000000004 14.906579077596692 0.0
    vertex 1.5000000000000004 16.693942410386747 0.0
    vertex 1.5605730587925373 16.630608268314855 0.0
  endloop
endfacet
facet normal 0.0 0.0 -1.0
  outer loop
    vertex 1.5000000000000004 14.906579077596692 0.0
    vertex 1.5605730587925373 16.630608268314855 0.0
    vertex 1.5567788690562028 14.966333527830317 0.0
  endloop
endfacet
facet normal 0.0 0.0 -1.0
  outer loop
    vertex 1.5567788690562028 14.966333527830317 0.0
    vertex 1.5605730587925373 16.630608268314855 0.0
    vertex 1.8907876796638996 15.170715269029536 0.0
  endloop
endfacet
facet normal 0.0 0.0 -1.0
  outer loop
    vertex 1.8907876796638996 15.170715269029536 0.0
    vertex 1.5605730587925373 16.630608268314855 0.0
    vertex 1.895244106921503 16.427312741449526 0.0
  endloop
endfacet
facet normal 0.0 0.0 -1.0
  outer loop
    vertex 1.8907876796638996 15.170715269029536 0.0
    vertex 1.895244106921503 16.427312741449526 0.0
    vertex 2.2663133031315397 15.281685029858478 0.0
  endloop
endfacet
facet normal 0.0 0.0 -1.0
  outer loop
    vertex 2.2663133031315397 15.281685029858478 0.0
    vertex 1.895244106921503 16.427312741449526 0.0
    vertex 2.2711282697574022 16.317563582781457 0.0
  endloop
endfacet
facet normal 0.0 0.0 -1.0
  outer loop
    vertex 2.2663133031315397 15.281685029858478 0.0
    vertex 2.2711282697574022 16.317563582781457 0.0
    vertex 2.5000000000000004 15.287652024884908 0.0
  endloop
endfacet
facet normal 0.0 0.0 -1.0
  outer loop
    vertex 2.5000000000000004 15.287652024884908 0.0
    vertex 2.2711282697574022 16.317563582781457 0.0
    vertex 2.5000000000000004 16.31246352481 0.0
  endloop
endfacet
facet normal 0.0 0.0 -1.0
  outer loop
    vertex 2.5000000000000004 15.287652024884908 0.0
    vertex 2.5000000000000004 16.31246352481 0.0
    vertex 2.662609662780916 16.308840016104824 0.0
  endloop
endfacet
facet normal 0.0 0.0 -1.0
  outer loop
    vertex 2.5000000000000004 15.287652024884908 0.0
    vertex 2.662609662780916 16.308840016104824 0.0
    vertex 2.6577642888052404 15.291680404502848 0.0
  endloop
endfacet
facet normal 0.0 0.0 -1.0
  outer loop
    vertex 2.6577642888052404 15.291680404502848 0.0
    vertex 2.662609662780916 16.308840016104824 0.0
    vertex 3.038463898914678 15.200020224698777 0.0
  endloop
endfacet
facet normal 0.0 0.0 -1.0
  outer loop
    vertex 3.038463898914678 15.200020224698777 0.0
    vertex 2.662609662780916 16.308840016104824 0.0
    vertex 3.043009476011084 16.401736538072257 0.0
  endloop
endfacet
facet normal 0.0 0.0 -1.0
  outer loop
    vertex 3.038463898914678 15.200020224698777 0.0
    vertex 3.043009476011084 16.401736538072257 0.0
    vertex 3.3824680841667467 15.012950980224296 0.0
  endloop
endfacet
facet normal 0.0 0.0 -1.0
  outer loop
    vertex 3.3824680841667467 15.012950980224296 0.0
    vertex 3.043009476011084 16.401736538072257 0.0
    vertex 3.3864040908166855 16.589922404230443 0.0
  endloop
endfacet
facet normal 0.0 0.0 -1.0
  outer loop
    vertex 3.3824680841667467 15.012950980224296 0.0
    vertex 3.3864040908166855 16.589922404230443 0.0
    vertex 3.6663335278303144 14.7432211309438 0.0
  endloop
endfacet
facet normal 0.0 0.0 -1.0
  outer loop
    vertex 3.6663335278303144 14.7432211309438 0.0
    vertex 3.3864040908166855 16.589922404230443 0.0
    vertex 3.669391731685149 16.860573058792543 0.0
  endloop
endfacet
facet normal 0.0 0.0 -1.0
  outer loop
    vertex 3.6663335278303144 14.7432211309438 0.0
    vertex 3.669391731685149 16.860573058792543 0.0
    vertex 3.8707152690295334 14.409212320336104 0.0
  endloop
endfacet
facet normal 0.0 0.0 -1.0
  outer loop
    vertex 3.8707152690295334 14.409212320336104 0.0
    vertex 3.669391731685149 16.860573058792543 0.0
    vertex 3.87268725855048 17.195244106921507 0.0
  endloop
endfacet
facet normal 0.0 0.0 -1.0
  outer loop
    vertex 3.8707152690295334 14.409212320336104 0.0
    vertex 3.87268725855048 17.195244106921507 0.0
    vertex 3.981685029858476 14.033686696868463 0.0
  endloop
endfacet
facet normal 0.0 0.0 -1.0
  outer loop
    vertex 3.981685029858476 14.033686696868463 0.0
    vertex 3.87268725855048 17.195244106921507 0.0
    vertex 3.982436417218547 17.571128269757406 0.0
  endloop
endfacet
facet normal 0.0 0.0 -1.0
  outer loop
    vertex 3.981685029858476 14.033686696868463 0.0
    vertex 3.982436417218547 17.571128269757406 0.0
    vertex 3.9916804045028482 13.642235711194763 0.0
  endloop
endfacet
facet normal 0.0 0.0 -1.0
  outer loop
    vertex 3.9916804045028482 13.642235711194763 0.0
    vertex 3.982436417218547 17.571128269757406 0.0
    vertex 3.987536475190008 17.800000000000004 0.0
  endloop
endfacet
facet normal 0.0 0.0 -1.0
  outer loop
    vertex 3.9916804045028482 13.642235711194763 0.0
    vertex 3.987536475190008 17.800000000000004 0.0
    vertex 3.9911599838951823 17.96260966278092 0.0
  endloop
endfacet
facet normal 0.0 0.0 1.0
  outer loop
    vertex 1.0999797753012264 14.33846389891468 3.9999999999999996
    vertex 1.008840016104819 17.637390337219088 3.9999999999999996
    vertex 1.0083195954971529 13.957764288805242 3.9999999999999996
  endloop
endfacet
facet normal 0.0 0.0 1.0
  outer loop
    vertex 1.008840016104819 17.637390337219088 3.9999999999999996
    vertex 1.0999797753012264 14.33846389891468 3.9999999999999996
    vertex 1.1017365380722526 17.25699052398892 3.9999999999999996
  endloop
endfacet
facet normal 0.0 0.0 1.0
  outer loop
    vertex 1.1017365380722526 17.25699052398892 3.9999999999999996
    vertex 1.0999797753012264 14.33846389891468 3.9999999999999996
    vertex 1.2870490197757074 14.68246808416675 3.9999999999999996
  endloop
endfacet
facet normal 0.0 0.0 1.0
  outer loop
    vertex 1.1017365380722526 17.25699052398892 3.9999999999999996
    vertex 1.2870490197757074 14.68246808416675 3.9999999999999996
    vertex 1.2899224042304362 16.91359590918332 3.9999999999999996
  endloop
endfacet
facet normal 0.0 0.0 1.0
  outer loop
    vertex 1.2899224042304362 16.91359590918332 3.9999999999999996
    vertex 1.2870490197757074 14.68246808416675 3.9999999999999996
    vertex 1.5000000000000004 14.906579077596692 3.9999999999999996
  endloop
endfacet
facet normal 0.0 0.0 1.0
  outer loop
    vertex 1.2899224042304362 16.91359590918332 3.9999999999999996
    vertex 1.5000000000000004 14.906579077596692 3.9999999999999996
    vertex 1.5000000000000004 16.693942410386747 3.9999999999999996
  endloop
endfacet
facet normal 0.0 0.0 1.0
  outer loop
    vertex 1.5000000000000004 16.693942410386747 3.9999999999999996
    vertex 1.5000000000000004 14.906579077596692 3.9999999999999996
    vertex 1.5567788690562028 14.966333527830317 3.9999999999999996
  endloop
endfacet
facet normal 0.0 0.0 1.0
  outer loop
    vertex 1.5000000000000004 16.693942410386747 3.9999999999999996
    vertex 1.5567788690562028 14.966333527830317 3.9999999999999996
    vertex 1.5605730587925373 16.630608268314855 3.9999999999999996
  endloop
endfacet
facet normal 0.0 0.0 1.0
  outer loop
    vertex 1.5605730587925373 16.630608268314855 3.9999999999999996
    vertex 1.5567788690562028 14.966333527830317 3.9999999999999996
    vertex 1.8907876796638996 15.170715269029536 3.9999999999999996
  endloop
endfacet
facet normal 0.0 0.0 1.0
  outer loop
    vertex 1.5605730587925373 16.630608268314855 3.9999999999999996
    vertex 1.8907876796638996 15.170715269029536 3.9999999999999996
    vertex 1.895244106921503 16.427312741449526 3.9999999999999996
  endloop
endfacet
facet normal 0.0 0.0 1.0
  outer loop
    vertex 1.895244106921503 16.427312741449526 3.9999999999999996
    vertex 1.8907876796638996 15.170715269029536 3.9999999999999996
    vertex 2.2663133031315397 15.281685029858478 3.9999999999999996
  endloop
endfacet
facet normal 0.0 0.0 1.0
  outer loop
    vertex 1.895244106921503 16.427312741449526 3.9999999999999996
    vertex 2.2663133031315397 15.281685029858478 3.9999999999999996
    vertex 2.2711282697574022 16.317563582781457 3.9999999999999996
  endloop
endfacet
facet normal 0.0 0.0 1.0
  outer loop
    vertex 2.2711282697574022 16.317563582781457 3.9999999999999996
    vertex 2.2663133031315397 15.281685029858478 3.9999999999999996
    vertex 2.5000000000000004 15.287652024884908 3.9999999999999996
  endloop
endfacet
facet normal 0.0 0.0 1.0
  outer loop
    vertex 2.2711282697574022 16.317563582781457 3.9999999999999996
    vertex 2.5000000000000004 15.287652024884908 3.9999999999999996
    vertex 2.5000000000000004 16.31246352481 3.9999999999999996
  endloop
endfacet
facet normal 0.0 0.0 1.0
  outer loop
    vertex 2.5000000000000004 16.31246352481 3.9999999999999996
    vertex 2.5000000000000004 15.287652024884908 3.9999999999999996
    vertex 2.6577642888052404 15.291680404502848 3.9999999999999996
  endloop
endfacet
facet normal 0.0 0.0 1.0
  outer loop
    vertex 2.5000000000000004 16.31246352481 3.9999999999999996
    vertex 2.6577642888052404 15.291680404502848 3.9999999999999996
    vertex 2.662609662780916 16.308840016104824 3.9999999999999996
  endloop
endfacet
facet normal 0.0 0.0 1.0
  outer loop
    vertex 2.662609662780916 16.308840016104824 3.9999999999999996
    vertex 2.6577642888052404 15.291680404502848 3.9999999999999996
    vertex 3.038463898914678 15.200020224698777 3.9999999999999996
  endloop
endfacet
facet normal 0.0 0.0 1.0
  outer loop
    vertex 2.662609662780916 16.308840016104824 3.9999999999999996
    vertex 3.038463898914678 15.200020224698777 3.9999999999999996
    vertex 3.043009476011084 16.401736538072257 3.9999999999999996
  endloop
endfacet
facet normal 0.0 0.0 1.0
  outer loop
    vertex 3.043009476011084 16.401736538072257 3.9999999999999996
    vertex 3.038463898914678 15.200020224698777 3.9999999999999996
    vertex 3.3824680841667467 15.012950980224296 3.9999999999999996
  endloop
endfacet
facet normal 0.0 0.0 1.0
  outer loop
    vertex 3.043009476011084 16.401736538072257 3.9999999999999996
    vertex 3.3824680841667467 15.012950980224296 3.9999999999999996
    vertex 3.3864040908166855 16.589922404230443 3.9999999999999996
  endloop
endfacet
facet normal 0.0 0.0 1.0
  outer loop
    vertex 3.3864040908166855 16.589922404230443 3.9999999999999996
    vertex 3.3824680841667467 15.012950980224296 3.9999999999999996
    vertex 3.6663335278303144 14.7432211309438 3.9999999999999996
  endloop
endfacet
facet normal 0.0 0.0 1.0
  outer loop
    vertex 3.3864040908166855 16.589922404230443 3.9999999999999996
    vertex 3.6663335278303144 14.7432211309438 3.9999999999999996
    vertex 3.669391731685149 16.860573058792543 3.9999999999999996
  endloop
endfacet
facet normal 0.0 0.0 1.0
  outer loop
    vertex 3.669391731685149 16.860573058792543 3.9999999999999996
    vertex 3.6663335278303144 14.7432211309438 3.9999999999999996
    vertex 3.8707152690295334 14.409212320336104 3.9999999999999996
  endloop
endfacet
facet normal 0.0 0.0 1.0
  outer loop
    vertex 3.669391731685149 16.860573058792543 3.9999999999999996
    vertex 3.8707152690295334 14.409212320336104 3.9999999999999996
    vertex 3.87268725855048 17.195244106921507 3.9999999999999996
  endloop
endfacet
facet normal 0.0 0.0 1.0
  outer loop
    vertex 3.87268725855048 17.195244106921507 3.9999999999999996
    vertex 3.8707152690295334 14.409212320336104 3.9999999999999996
    vertex 3.981685029858476 14.033686696868463 3.9999999999999996
  endloop
endfacet
facet normal 0.0 0.0 1.0
  outer loop
    vertex 3.87268725855048 17.195244106921507 3.9999999999999996
    vertex 3.981685029858476 14.033686696868463 3.9999999999999996
    vertex 3.982436417218547 17.571128269757406 3.9999999999999996
  endloop
endfacet
facet normal 0.0 0.0 1.0
  outer loop
    vertex 3.982436417218547 17.571128269757406 3.9999999999999996
    vertex 3.981685029858476 14.033686696868463 3.9999999999999996
    vertex 3.9916804045028482 13.642235711194763 3.9999999999999996
  endloop
endfacet
facet normal 0.0 0.0 1.0
  outer loop
    vertex 3.982436417218547 17.571128269757406 3.9999999999999996
    vertex 3.9916804045028482 13.642235711194763 3.9999999999999996
    vertex 3.987536475190008 17.800000000000004 3.9999999999999996
  endloop
endfacet
facet normal 0.0 0.0 1.0
  outer loop
    vertex 3.987536475190008 17.800000000000004 3.9999999999999996
    vertex 3.9916804045028482 13.642235711194763 3.9999999999999996
    vertex 3.9911599838951823 17.96260966278092 3.9999999999999996
  endloop
endfacet
facet normal 0.0 0.0 1.0
  outer loop
    vertex 1.0565213112538019 10.207883899088406 3.9999999999999996
    vertex 1.0083195954971529 13.957764288805242 3.9999999999999996
    vertex 1.0001385335674147 9.820385816409846 3.9999999999999996
  endloop
endfacet
facet normal 0.0 0.0 1.0
  outer loop
    vertex 1.0083195954971529 13.957764288805242 3.9999999999999996
    vertex 1.0565213112538019 10.207883899088406 3.9999999999999996
    vertex 1.018314970141525 13.566313303131542 3.9999999999999996
  endloop
endfacet
facet normal 0.0 0.0 1.0
  outer loop
    vertex 1.018314970141525 13.566313303131542 3.9999999999999996
    vertex 1.0565213112538019 10.207883899088406 3.9999999999999996
    vertex 1.129284730970467 13.1907876796639 3.9999999999999996
  endloop
endfacet
facet normal 0.0 0.0 1.0
  outer loop
    vertex 1.129284730970467 13.1907876796639 3.9999999999999996
    vertex 1.0565213112538019 10.207883899088406 3.9999999999999996
    vertex 1.2112747761169214 10.567585368104105 3.9999999999999996
  endloop
endfacet
facet normal 0.0 0.0 1.0
  outer loop
    vertex 1.129284730970467 13.1907876796639 3.9999999999999996
    vertex 1.2112747761169214 10.567585368104105 3.9999999999999996
    vertex 1.3336664721696863 12.856778869056207 3.9999999999999996
  endloop
endfacet
facet normal 0.0 0.0 1.0
  outer loop
    vertex 1.3336664721696863 12.856778869056207 3.9999999999999996
    vertex 1.2112747761169214 10.567585368104105 3.9999999999999996
    vertex 1.4538527352685429 10.874977162778308 3.9999999999999996
  endloop
endfacet
facet normal 0.0 0.0 1.0
  outer loop
    vertex 1.3336664721696863 12.856778869056207 3.9999999999999996
    vertex 1.4538527352685429 10.874977162778308 3.9999999999999996
    vertex 1.5000000000000004 12.698728220788016 3.9999999999999996
  endloop
endfacet
facet normal 0.0 0.0 1.0
  outer loop
    vertex 1.5000000000000004 12.698728220788016 3.9999999999999996
    vertex 1.4538527352685429 10.874977162778308 3.9999999999999996
    vertex 1.5000000000000004 10.90940096204631 3.9999999999999996
  endloop
endfacet
facet normal 0.0 0.0 1.0
  outer loop
    vertex 1.5000000000000004 12.698728220788016 3.9999999999999996
    vertex 1.5000000000000004 10.90940096204631 3.9999999999999996
    vertex 1.7677239016715167 11.109111040292925 3.9999999999999996
  endloop
endfacet
facet normal 0.0 0.0 1.0
  outer loop
    vertex 1.5000000000000004 12.698728220788016 3.9999999999999996
    vertex 1.7677239016715167 11.109111040292925 3.9999999999999996
    vertex 1.6175319158332537 12.58704901977571 3.9999999999999996
  endloop
endfacet
facet normal 0.0 0.0 1.0
  outer loop
    vertex 1.6175319158332537 12.58704901977571 3.9999999999999996
    vertex 1.7677239016715167 11.109111040292925 3.9999999999999996
    vertex 1.9615361010853225 12.39997977530123 3.9999999999999996
  endloop
endfacet
facet normal 0.0 0.0 1.0
  outer loop
    vertex 1.9615361010853225 12.39997977530123 3.9999999999999996
    vertex 1.7677239016715167 11.109111040292925 3.9999999999999996
    vertex 2.1314984740321057 11.254031163819862 3.9999999999999996
  endloop
endfacet
facet normal 0.0 0.0 1.0
  outer loop
    vertex 1.9615361010853225 12.39997977530123 3.9999999999999996
    vertex 2.1314984740321057 11.254031163819862 3.9999999999999996
    vertex 2.3422357111947614 12.308319595497155 3.9999999999999996
  endloop
endfacet
facet normal 0.0 0.0 1.0
  outer loop
    vertex 2.3422357111947614 12.308319595497155 3.9999999999999996
    vertex 2.1314984740321057 11.254031163819862 3.9999999999999996
    vertex 2.5203858164098425 11.299861466432588 3.9999999999999996
  endloop
endfacet
facet normal 0.0 0.0 1.0
  outer loop
    vertex 2.3422357111947614 12.308319595497155 3.9999999999999996
    vertex 2.5203858164098425 11.299861466432588 3.9999999999999996
    vertex 2.5000000000000004 12.312347975115099 3.9999999999999996
  endloop
endfacet
facet normal 0.0 0.0 1.0
  outer loop
    vertex 2.5000000000000004 12.312347975115099 3.9999999999999996
    vertex 2.5203858164098425 11.299861466432588 3.9999999999999996
    vertex 2.7336866968684608 12.318314970141529 3.9999999999999996
  endloop
endfacet
facet normal 0.0 0.0 1.0
  outer loop
    vertex 2.7336866968684608 12.318314970141529 3.9999999999999996
    vertex 2.5203858164098425 11.299861466432588 3.9999999999999996
    vertex 2.9078838990884033 11.243478688746201 3.9999999999999996
  endloop
endfacet
facet normal 0.0 0.0 1.0
  outer loop
    vertex 2.7336866968684608 12.318314970141529 3.9999999999999996
    vertex 2.9078838990884033 11.243478688746201 3.9999999999999996
    vertex 3.1092123203361015 12.429284730970469 3.9999999999999996
  endloop
endfacet
facet normal 0.0 0.0 1.0
  outer loop
    vertex 3.1092123203361015 12.429284730970469 3.9999999999999996
    vertex 2.9078838990884033 11.243478688746201 3.9999999999999996
    vertex 3.267585368104102 11.088725223883083 3.9999999999999996
  endloop
endfacet
facet normal 0.0 0.0 1.0
  outer loop
    vertex 3.1092123203361015 12.429284730970469 3.9999999999999996
    vertex 3.267585368104102 11.088725223883083 3.9999999999999996
    vertex 3.4432211309437983 12.63366647216969 3.9999999999999996
  endloop
endfacet
facet normal 0.0 0.0 1.0
  outer loop
    vertex 3.4432211309437983 12.63366647216969 3.9999999999999996
    vertex 3.267585368104102 11.088725223883083 3.9999999999999996
    vertex 3.5749771627783047 10.84614726473146 3.9999999999999996
  endloop
endfacet
facet normal 0.0 0.0 1.0
  outer loop
    vertex 3.4432211309437983 12.63366647216969 3.9999999999999996
    vertex 3.5749771627783047 10.84614726473146 3.9999999999999996
    vertex 3.712950980224294 12.917531915833255 3.9999999999999996
  endloop
endfacet
facet normal 0.0 0.0 1.0
  outer loop
    vertex 3.712950980224294 12.917531915833255 3.9999999999999996
    vertex 3.5749771627783047 10.84614726473146 3.9999999999999996
    vertex 3.809111040292922 10.532276098328486 3.9999999999999996
  endloop
endfacet
facet normal 0.0 0.0 1.0
  outer loop
    vertex 3.712950980224294 12.917531915833255 3.9999999999999996
    vertex 3.809111040292922 10.532276098328486 3.9999999999999996
    vertex 3.9000202246987743 13.261536101085325 3.9999999999999996
  endloop
endfacet
facet normal 0.0 0.0 1.0
  outer loop
    vertex 3.9000202246987743 13.261536101085325 3.9999999999999996
    vertex 3.809111040292922 10.532276098328486 3.9999999999999996
    vertex 3.954031163819861 10.168501525967898 3.9999999999999996
  endloop
endfacet
facet normal 0.0 0.0 1.0
  outer loop
    vertex 3.9000202246987743 13.261536101085325 3.9999999999999996
    vertex 3.954031163819861 10.168501525967898 3.9999999999999996
    vertex 3.9916804045028482 13.642235711194763 3.9999999999999996
  endloop
endfacet
facet normal 0.0 0.0 1.0
  outer loop
    vertex 3.9916804045028482 13.642235711194763 3.9999999999999996
    vertex 3.954031163819861 10.168501525967898 3.9999999999999996
    vertex 3.9998614664325864 9.779614183590162 3.9999999999999996
  endloop
endfacet
facet normal 0.0 0.0 1.0
  outer loop
    vertex 0.0 0.0 3.9999999999999996
    vertex 1.0001385335674147 9.820385816409846 3.9999999999999996
    vertex 0.0 25.800000000000004 3.9999999999999996
  endloop
endfacet
facet normal 0.0 0.0 1.0
  outer loop
    vertex 1.0001385335674147 9.820385816409846 3.9999999999999996
    vertex 0.0 0.0 3.9999999999999996
    vertex 1.0459688361801402 9.431498474032109 3.9999999999999996
  endloop
endfacet
facet normal 0.0 0.0 1.0
  outer loop
    vertex 1.0459688361801402 9.431498474032109 3.9999999999999996
    vertex 0.0 0.0 3.9999999999999996
    vertex 1.1908889597070782 9.06772390167152 3.9999999999999996
  endloop
endfacet
facet normal 0.0 0.0 1.0
  outer loop
    vertex 1.1908889597070782 9.06772390167152 3.9999999999999996
    vertex 0.0 0.0 3.9999999999999996
    vertex 5.0 0.0 3.9999999999999996
  endloop
endfacet
facet normal 0.0 0.0 1.0
  outer loop
    vertex 1.1908889597070782 9.06772390167152 3.9999999999999996
    vertex 5.0 0.0 3.9999999999999996
    vertex 1.425022837221696 8.753852735268545 3.9999999999999996
  endloop
endfacet
facet normal 0.0 0.0 1.0
  outer loop
    vertex 1.425022837221696 8.753852735268545 3.9999999999999996
    vertex 5.0 0.0 3.9999999999999996
    vertex 1.732414631895898 8.511274776116924 3.9999999999999996
  endloop
endfacet
facet normal 0.0 0.0 1.0
  outer loop
    vertex 1.732414631895898 8.511274776116924 3.9999999999999996
    vertex 5.0 0.0 3.9999999999999996
    vertex 2.0921161009115976 8.356521311253806 3.9999999999999996
  endloop
endfacet
facet normal 0.0 0.0 1.0
  outer loop
    vertex 2.0921161009115976 8.356521311253806 3.9999999999999996
    vertex 5.0 0.0 3.9999999999999996
    vertex 2.479614183590159 8.300138533567418 3.9999999999999996
  endloop
endfacet
facet normal 0.0 0.0 1.0
  outer loop
    vertex 2.479614183590159 8.300138533567418 3.9999999999999996
    vertex 5.0 0.0 3.9999999999999996
    vertex 2.868501525967895 8.345968836180143 3.9999999999999996
  endloop
endfacet
facet normal 0.0 0.0 1.0
  outer loop
    vertex 2.868501525967895 8.345968836180143 3.9999999999999996
    vertex 5.0 0.0 3.9999999999999996
    vertex 3.2322760983284837 8.490888959707082 3.9999999999999996
  endloop
endfacet
facet normal 0.0 0.0 1.0
  outer loop
    vertex 3.2322760983284837 8.490888959707082 3.9999999999999996
    vertex 5.0 0.0 3.9999999999999996
    vertex 3.5461472647314585 8.7250228372217 3.9999999999999996
  endloop
endfacet
facet normal 0.0 0.0 1.0
  outer loop
    vertex 3.5461472647314585 8.7250228372217 3.9999999999999996
    vertex 5.0 0.0 3.9999999999999996
    vertex 3.78872522388308 9.032414631895902 3.9999999999999996
  endloop
endfacet
facet normal 0.0 0.0 1.0
  outer loop
    vertex 3.78872522388308 9.032414631895902 3.9999999999999996
    vertex 5.0 0.0 3.9999999999999996
    vertex 3.9434786887461986 9.3921161009116 3.9999999999999996
  endloop
endfacet
facet normal 0.0 0.0 1.0
  outer loop
    vertex 3.9434786887461986 9.3921161009116 3.9999999999999996
    vertex 5.0 0.0 3.9999999999999996
    vertex 3.9998614664325864 9.779614183590162 3.9999999999999996
  endloop
endfacet
facet normal 0.0 0.0 1.0
  outer loop
    vertex 0.0 25.800000000000004 3.9999999999999996
    vertex 1.1273127414495212 18.4047558930785 3.9999999999999996
    vertex 5.0 25.800000000000004 3.9999999999999996
  endloop
endfacet
facet normal 0.0 0.0 1.0
  outer loop
    vertex 1.1273127414495212 18.4047558930785 3.9999999999999996
    vertex 0.0 25.800000000000004 3.9999999999999996
    vertex 1.017563582781454 18.028871730242603 3.9999999999999996
  endloop
endfacet
facet normal 0.0 0.0 1.0
  outer loop
    vertex 1.017563582781454 18.028871730242603 3.9999999999999996
    vertex 0.0 25.800000000000004 3.9999999999999996
    vertex 1.008840016104819 17.637390337219088 3.9999999999999996
  endloop
endfacet
facet normal 0.0 0.0 1.0
  outer loop
    vertex 1.008840016104819 17.637390337219088 3.9999999999999996
    vertex 0.0 25.800000000000004 3.9999999999999996
    vertex 1.0001385335674147 9.820385816409846 3.9999999999999996
  endloop
endfacet
facet normal 0.0 0.0 1.0
  outer loop
    vertex 1.008840016104819 17.637390337219088 3.9999999999999996
    vertex 1.0001385335674147 9.820385816409846 3.9999999999999996
    vertex 1.0083195954971529 13.957764288805242 3.9999999999999996
  endloop
endfacet
facet normal 0.0 0.0 1.0
  outer loop
    vertex 1.017563582781454 18.028871730242603 3.9999999999999996
    vertex 1.008840016104819 17.637390337219088 3.9999999999999996
    vertex 1.0124635248099931 17.800000000000004 3.9999999999999996
  endloop
endfacet
facet normal 0.0 0.0 1.0
  outer loop
    vertex 5.0 25.800000000000004 3.9999999999999996
    vertex 1.1273127414495212 18.4047558930785 3.9999999999999996
    vertex 1.3306082683148515 18.73942694120747 3.9999999999999996
  endloop
endfacet
facet normal 0.0 0.0 1.0
  outer loop
    vertex 5.0 25.800000000000004 3.9999999999999996
    vertex 1.3306082683148515 18.73942694120747 3.9999999999999996
    vertex 1.6135959091833159 19.010077595769566 3.9999999999999996
  endloop
endfacet
facet normal 0.0 0.0 1.0
  outer loop
    vertex 5.0 25.800000000000004 3.9999999999999996
    vertex 1.6135959091833159 19.010077595769566 3.9999999999999996
    vertex 1.9569905239889172 19.198263461927752 3.9999999999999996
  endloop
endfacet
facet normal 0.0 0.0 1.0
  outer loop
    vertex 5.0 25.800000000000004 3.9999999999999996
    vertex 1.9569905239889172 19.198263461927752 3.9999999999999996
    vertex 2.3373903372190847 19.291159983895184 3.9999999999999996
  endloop
endfacet
facet normal 0.0 0.0 1.0
  outer loop
    vertex 5.0 25.800000000000004 3.9999999999999996
    vertex 2.3373903372190847 19.291159983895184 3.9999999999999996
    vertex 2.5000000000000004 19.28753647519001 3.9999999999999996
  endloop
endfacet
facet normal 0.0 0.0 1.0
  outer loop
    vertex 5.0 25.800000000000004 3.9999999999999996
    vertex 2.5000000000000004 19.28753647519001 3.9999999999999996
    vertex 2.728871730242599 19.28243641721855 3.9999999999999996
  endloop
endfacet
facet normal 0.0 0.0 1.0
  outer loop
    vertex 5.0 25.800000000000004 3.9999999999999996
    vertex 2.728871730242599 19.28243641721855 3.9999999999999996
    vertex 3.1047558930784978 19.172687258550482 3.9999999999999996
  endloop
endfacet
facet normal 0.0 0.0 1.0
  outer loop
    vertex 5.0 25.800000000000004 3.9999999999999996
    vertex 3.1047558930784978 19.172687258550482 3.9999999999999996
    vertex 3.4394269412074627 18.969391731685153 3.9999999999999996
  endloop
endfacet
facet normal 0.0 0.0 1.0
  outer loop
    vertex 5.0 25.800000000000004 3.9999999999999996
    vertex 3.4394269412074627 18.969391731685153 3.9999999999999996
    vertex 3.710077595769564 18.68640409081669 3.9999999999999996
  endloop
endfacet
facet normal 0.0 0.0 1.0
  outer loop
    vertex 5.0 25.800000000000004 3.9999999999999996
    vertex 3.710077595769564 18.68640409081669 3.9999999999999996
    vertex 3.898263461927748 18.343009476011087 3.9999999999999996
  endloop
endfacet
facet normal 0.0 0.0 1.0
  outer loop
    vertex 5.0 25.800000000000004 3.9999999999999996
    vertex 3.898263461927748 18.343009476011087 3.9999999999999996
    vertex 3.9911599838951823 17.96260966278092 3.9999999999999996
  endloop
endfacet
facet normal 0.0 0.0 1.0
  outer loop
    vertex 5.0 25.800000000000004 3.9999999999999996
    vertex 3.9911599838951823 17.96260966278092 3.9999999999999996
    vertex 3.9916804045028482 13.642235711194763 3.9999999999999996
  endloop
endfacet
facet normal 0.0 0.0 1.0
  outer loop
    vertex 5.0 25.800000000000004 3.9999999999999996
    vertex 3.9916804045028482 13.642235711194763 3.9999999999999996
    vertex 3.9998614664325864 9.779614183590162 3.9999999999999996
  endloop
endfacet
facet normal 0.0 0.0 1.0
  outer loop
    vertex 5.0 25.800000000000004 3.9999999999999996
    vertex 3.9998614664325864 9.779614183590162 3.9999999999999996
    vertex 5.0 0.0 3.9999999999999996
  endloop
endfacet
facet normal -0.0 1.0 -0.0
  outer loop
    vertex 0.0 25.800000000000004 3.9999999999999996
    vertex 5.0 25.800000000000004 0.0
    vertex 0.0 25.800000000000004 0.0
  endloop
endfacet
facet normal -0.0 1.0 -0.0
  outer loop
    vertex 5.0 25.800000000000004 0.0
    vertex 0.0 25.800000000000004 3.9999999999999996
    vertex 5.0 25.800000000000004 3.9999999999999996
  endloop
endfacet
facet normal 1.0 3.378543078155032e-18 4.589578397026764e-17
  outer loop
    vertex 5.0 25.800000000000004 0.0
    vertex 5.0 0.0 3.9999999999999996
    vertex 5.0 0.0 0.0
  endloop
endfacet
facet normal 1.0 3.378543078155032e-18 4.589578397026764e-17
  outer loop
    vertex 5.0 0.0 3.9999999999999996
    vertex 5.0 25.800000000000004 0.0
    vertex 5.0 25.800000000000004 3.9999999999999996
  endloop
endfacet
facet normal -0.0 -1.0 -0.0
  outer loop
    vertex 5.0 0.0 3.9999999999999996
    vertex 0.0 0.0 0.0
    vertex 5.0 0.0 0.0
  endloop
endfacet
facet normal -0.0 -1.0 -0.0
  outer loop
    vertex 0.0 0.0 0.0
    vertex 5.0 0.0 3.9999999999999996
    vertex 0.0 0.0 3.9999999999999996
  endloop
endfacet
facet normal -1.0 0.0 0.0
  outer loop
    vertex 0.0 25.800000000000004 3.9999999999999996
    vertex 0.0 0.0 0.0
    vertex 0.0 0.0 3.9999999999999996
  endloop
endfacet
facet normal -1.0 0.0 0.0
  outer loop
    vertex 0.0 0.0 0.0
    vertex 0.0 25.800000000000004 3.9999999999999996
    vertex 0.0 25.800000000000004 0.0
  endloop
endfacet
facet normal 0.022277946743245593 0.9997518157467408 0.0
  outer loop
    vertex 2.2711282697574022 16.317563582781457 3.9999999999999996
    vertex 2.5000000000000004 16.31246352481 0.0
    vertex 2.2711282697574022 16.317563582781457 0.0
  endloop
endfacet
facet normal 0.022277946743245593 0.9997518157467408 0.0
  outer loop
    vertex 2.5000000000000004 16.31246352481 0.0
    vertex 2.2711282697574022 16.317563582781457 3.9999999999999996
    vertex 2.5000000000000004 16.31246352481 3.9999999999999996
  endloop
endfacet
facet normal 0.02227794674325515 0.9997518157467405 0.0
  outer loop
    vertex 2.5000000000000004 16.31246352481 3.9999999999999996
    vertex 2.662609662780916 16.308840016104824 0.0
    vertex 2.5000000000000004 16.31246352481 0.0
  endloop
endfacet
facet normal 0.02227794674325515 0.9997518157467405 0.0
  outer loop
    vertex 2.662609662780916 16.308840016104824 0.0
    vertex 2.5000000000000004 16.31246352481 3.9999999999999996
    vertex 2.662609662780916 16.308840016104824 3.9999999999999996
  endloop
endfacet
facet normal -0.23723596617507617 0.9714520556121019 -0.0
  outer loop
    vertex 2.662609662780916 16.308840016104824 3.9999999999999996
    vertex 3.043009476011084 16.401736538072257 0.0
    vertex 2.662609662780916 16.308840016104824 0.0
  endloop
endfacet
facet normal -0.23723596617507617 0.9714520556121019 -0.0
  outer loop
    vertex 3.043009476011084 16.401736538072257 0.0
    vertex 2.662609662780916 16.308840016104824 3.9999999999999996
    vertex 3.043009476011084 16.401736538072257 3.9999999999999996
  endloop
endfacet
facet normal -0.4805826400495537 0.8769494432879247 -0.0
  outer loop
    vertex 3.043009476011084 16.401736538072257 3.9999999999999996
    vertex 3.3864040908166855 16.589922404230443 0.0
    vertex 3.043009476011084 16.401736538072257 0.0
  endloop
endfacet
facet normal -0.4805826400495537 0.8769494432879247 -0.0
  outer loop
    vertex 3.3864040908166855 16.589922404230443 0.0
    vertex 3.043009476011084 16.401736538072257 3.9999999999999996
    vertex 3.3864040908166855 16.589922404230443 3.9999999999999996
  endloop
endfacet
facet normal -0.691178401205016 0.7226841756311522 -0.0
  outer loop
    vertex 3.3864040908166855 16.589922404230443 3.9999999999999996
    vertex 3.669391731685149 16.860573058792543 0.0
    vertex 3.3864040908166855 16.589922404230443 0.0
  endloop
endfacet
facet normal -0.691178401205016 0.7226841756311522 -0.0
  outer loop
    vertex 3.669391731685149 16.860573058792543 0.0
    vertex 3.3864040908166855 16.589922404230443 3.9999999999999996
    vertex 3.669391731685149 16.860573058792543 3.9999999999999996
  endloop
endfacet
facet normal -0.8546714965446667 0.51916917569719 -0.0
  outer loop
    vertex 3.87268725855048 17.195244106921507 3.9999999999999996
    vertex 3.669391731685149 16.860573058792543 0.0
    vertex 3.669391731685149 16.860573058792543 3.9999999999999996
  endloop
endfacet
facet normal -0.8546714965446667 0.51916917569719 -0.0
  outer loop
    vertex 3.669391731685149 16.860573058792543 0.0
    vertex 3.87268725855048 17.195244106921507 3.9999999999999996
    vertex 3.87268725855048 17.195244106921507 0.0
  endloop
endfacet
facet normal -0.9599201418062325 0.2802736544070855 -0.0
  outer loop
    vertex 3.982436417218547 17.571128269757406 3.9999999999999996
    vertex 3.87268725855048 17.195244106921507 0.0
    vertex 3.87268725855048 17.195244106921507 3.9999999999999996
  endloop
endfacet
facet normal -0.9599201418062325 0.2802736544070855 -0.0
  outer loop
    vertex 3.87268725855048 17.195244106921507 0.0
    vertex 3.982436417218547 17.571128269757406 3.9999999999999996
    vertex 3.982436417218547 17.571128269757406 0.0
  endloop
endfacet
facet normal -0.9997518157467407 0.02227794674325794 -0.0
  outer loop
    vertex 3.987536475190008 17.800000000000004 3.9999999999999996
    vertex 3.982436417218547 17.571128269757406 0.0
    vertex 3.982436417218547 17.571128269757406 3.9999999999999996
  endloop
endfacet
facet normal -0.9997518157467407 0.02227794674325794 -0.0
  outer loop
    vertex 3.982436417218547 17.571128269757406 0.0
    vertex 3.987536475190008 17.800000000000004 3.9999999999999996
    vertex 3.987536475190008 17.800000000000004 0.0
  endloop
endfacet
facet normal -0.9997518157467405 0.022277946743255103 -0.0
  outer loop
    vertex 3.9911599838951823 17.96260966278092 3.9999999999999996
    vertex 3.987536475190008 17.800000000000004 0.0
    vertex 3.987536475190008 17.800000000000004 3.9999999999999996
  endloop
endfacet
facet normal -0.9997518157467405 0.022277946743255103 -0.0
  outer loop
    vertex 3.987536475190008 17.800000000000004 0.0
    vertex 3.9911599838951823 17.96260966278092 3.9999999999999996
    vertex 3.9911599838951823 17.96260966278092 0.0
  endloop
endfacet
facet normal -0.971452055612101 -0.23723596617507997 -0.0
  outer loop
    vertex 3.898263461927748 18.343009476011087 3.9999999999999996
    vertex 3.9911599838951823 17.96260966278092 0.0
    vertex 3.9911599838951823 17.96260966278092 3.9999999999999996
  endloop
endfacet
facet normal -0.971452055612101 -0.23723596617507997 -0.0
  outer loop
    vertex 3.9911599838951823 17.96260966278092 0.0
    vertex 3.898263461927748 18.343009476011087 3.9999999999999996
    vertex 3.898263461927748 18.343009476011087 0.0
  endloop
endfacet
facet normal -0.876949443287925 -0.48058264004955337 -0.0
  outer loop
    vertex 3.710077595769564 18.68640409081669 3.9999999999999996
    vertex 3.898263461927748 18.343009476011087 0.0
    vertex 3.898263461927748 18.343009476011087 3.9999999999999996
  endloop
endfacet
facet normal -0.876949443287925 -0.48058264004955337 -0.0
  outer loop
    vertex 3.898263461927748 18.343009476011087 0.0
    vertex 3.710077595769564 18.68640409081669 3.9999999999999996
    vertex 3.710077595769564 18.68640409081669 0.0
  endloop
endfacet
facet normal -0.7226841756311531 -0.6911784012050151 -0.0
  outer loop
    vertex 3.4394269412074627 18.969391731685153 3.9999999999999996
    vertex 3.710077595769564 18.68640409081669 0.0
    vertex 3.710077595769564 18.68640409081669 3.9999999999999996
  endloop
endfacet
facet normal -0.7226841756311531 -0.6911784012050151 -0.0
  outer loop
    vertex 3.710077595769564 18.68640409081669 0.0
    vertex 3.4394269412074627 18.969391731685153 3.9999999999999996
    vertex 3.4394269412074627 18.969391731685153 0.0
  endloop
endfacet
facet normal -0.5191691756971862 -0.854671496544669 -0.0
  outer loop
    vertex 3.4394269412074627 18.969391731685153 3.9999999999999996
    vertex 3.1047558930784978 19.172687258550482 0.0
    vertex 3.4394269412074627 18.969391731685153 0.0
  endloop
endfacet
facet normal -0.5191691756971862 -0.854671496544669 -0.0
  outer loop
    vertex 3.1047558930784978 19.172687258550482 0.0
    vertex 3.4394269412074627 18.969391731685153 3.9999999999999996
    vertex 3.1047558930784978 19.172687258550482 3.9999999999999996
  endloop
endfacet
facet normal -0.28027365440708313 -0.9599201418062332 -0.0
  outer loop
    vertex 3.1047558930784978 19.172687258550482 3.9999999999999996
    vertex 2.728871730242599 19.28243641721855 0.0
    vertex 3.1047558930784978 19.172687258550482 0.0
  endloop
endfacet
facet normal -0.28027365440708313 -0.9599201418062332 -0.0
  outer loop
    vertex 2.728871730242599 19.28243641721855 0.0
    vertex 3.1047558930784978 19.172687258550482 3.9999999999999996
    vertex 2.728871730242599 19.28243641721855 3.9999999999999996
  endloop
endfacet
facet normal -0.022277946743257837 -0.9997518157467407 -0.0
  outer loop
    vertex 2.728871730242599 19.28243641721855 3.9999999999999996
    vertex 2.5000000000000004 19.28753647519001 0.0
    vertex 2.728871730242599 19.28243641721855 0.0
  endloop
endfacet
facet normal -0.022277946743257837 -0.9997518157467407 -0.0
  outer loop
    vertex 2.5000000000000004 19.28753647519001 0.0
    vertex 2.728871730242599 19.28243641721855 3.9999999999999996
    vertex 2.5000000000000004 19.28753647519001 3.9999999999999996
  endloop
endfacet
facet normal -0.0222779467432552 -0.9997518157467407 -0.0
  outer loop
    vertex 2.5000000000000004 19.28753647519001 3.9999999999999996
    vertex 2.3373903372190847 19.291159983895184 0.0
    vertex 2.5000000000000004 19.28753647519001 0.0
  endloop
endfacet
facet normal -0.0222779467432552 -0.9997518157467407 -0.0
  outer loop
    vertex 2.3373903372190847 19.291159983895184 0.0
    vertex 2.5000000000000004 19.28753647519001 3.9999999999999996
    vertex 2.3373903372190847 19.291159983895184 3.9999999999999996
  endloop
endfacet
facet normal 0.23723596617507617 -0.9714520556121019 -0.0
  outer loop
    vertex 2.3373903372190847 19.291159983895184 3.9999999999999996
    vertex 1.9569905239889172 19.198263461927752 0.0
    vertex 2.3373903372190847 19.291159983895184 0.0
  endloop
endfacet
facet normal 0.23723596617507617 -0.9714520556121019 -0.0
  outer loop
    vertex 1.9569905239889172 19.198263461927752 0.0
    vertex 2.3373903372190847 19.291159983895184 3.9999999999999996
    vertex 1.9569905239889172 19.198263461927752 3.9999999999999996
  endloop
endfacet
facet normal 0.4805826400495541 -0.8769494432879246 -0.0
  outer loop
    vertex 1.9569905239889172 19.198263461927752 3.9999999999999996
    vertex 1.6135959091833159 19.010077595769566 0.0
    vertex 1.9569905239889172 19.198263461927752 0.0
  endloop
endfacet
facet normal 0.4805826400495541 -0.8769494432879246 -0.0
  outer loop
    vertex 1.6135959091833159 19.010077595769566 0.0
    vertex 1.9569905239889172 19.198263461927752 3.9999999999999996
    vertex 1.6135959091833159 19.010077595769566 3.9999999999999996
  endloop
endfacet
facet normal 0.6911784012050113 -0.7226841756311566 -0.0
  outer loop
    vertex 1.6135959091833159 19.010077595769566 3.9999999999999996
    vertex 1.3306082683148515 18.73942694120747 0.0
    vertex 1.6135959091833159 19.010077595769566 0.0
  endloop
endfacet
facet normal 0.6911784012050113 -0.7226841756311566 -0.0
  outer loop
    vertex 1.3306082683148515 18.73942694120747 0.0
    vertex 1.6135959091833159 19.010077595769566 3.9999999999999996
    vertex 1.3306082683148515 18.73942694120747 3.9999999999999996
  endloop
endfacet
facet normal 0.8546714965446692 -0.5191691756971859 -0.0
  outer loop
    vertex 1.3306082683148515 18.73942694120747 0.0
    vertex 1.1273127414495212 18.4047558930785 3.9999999999999996
    vertex 1.1273127414495212 18.4047558930785 0.0
  endloop
endfacet
facet normal 0.8546714965446692 -0.5191691756971859 -0.0
  outer loop
    vertex 1.1273127414495212 18.4047558930785 3.9999999999999996
    vertex 1.3306082683148515 18.73942694120747 0.0
    vertex 1.3306082683148515 18.73942694120747 3.9999999999999996
  endloop
endfacet
facet normal 0.9599201418062319 -0.2802736544070879 -0.0
  outer loop
    vertex 1.1273127414495212 18.4047558930785 0.0
    vertex 1.017563582781454 18.028871730242603 3.9999999999999996
    vertex 1.017563582781454 18.028871730242603 0.0
  endloop
endfacet
facet normal 0.9599201418062319 -0.2802736544070879 -0.0
  outer loop
    vertex 1.017563582781454 18.028871730242603 3.9999999999999996
    vertex 1.1273127414495212 18.4047558930785 0.0
    vertex 1.1273127414495212 18.4047558930785 3.9999999999999996
  endloop
endfacet
facet normal 0.9997518157467407 -0.02227794674325613 -0.0
  outer loop
    vertex 1.017563582781454 18.028871730242603 0.0
    vertex 1.0124635248099931 17.800000000000004 3.9999999999999996
    vertex 1.0124635248099931 17.800000000000004 0.0
  endloop
endfacet
facet normal 0.9997518157467407 -0.02227794674325613 -0.0
  outer loop
    vertex 1.0124635248099931 17.800000000000004 3.9999999999999996
    vertex 1.017563582781454 18.028871730242603 0.0
    vertex 1.017563582781454 18.028871730242603 3.9999999999999996
  endloop
endfacet
facet normal 0.9997518157467405 -0.02227794674325619 -0.0
  outer loop
    vertex 1.0124635248099931 17.800000000000004 0.0
    vertex 1.008840016104819 17.637390337219088 3.9999999999999996
    vertex 1.008840016104819 17.637390337219088 0.0
  endloop
endfacet
facet normal 0.9997518157467405 -0.02227794674325619 -0.0
  outer loop
    vertex 1.008840016104819 17.637390337219088 3.9999999999999996
    vertex 1.0124635248099931 17.800000000000004 0.0
    vertex 1.0124635248099931 17.800000000000004 3.9999999999999996
  endloop
endfacet
facet normal 0.9714520556121012 0.23723596617507867 0.0
  outer loop
    vertex 1.008840016104819 17.637390337219088 0.0
    vertex 1.1017365380722526 17.25699052398892 3.9999999999999996
    vertex 1.1017365380722526 17.25699052398892 0.0
  endloop
endfacet
facet normal 0.9714520556121012 0.23723596617507867 0.0
  outer loop
    vertex 1.1017365380722526 17.25699052398892 3.9999999999999996
    vertex 1.008840016104819 17.637390337219088 0.0
    vertex 1.008840016104819 17.637390337219088 3.9999999999999996
  endloop
endfacet
facet normal 0.8769494432879239 0.48058264004955537 0.0
  outer loop
    vertex 1.1017365380722526 17.25699052398892 0.0
    vertex 1.2899224042304362 16.91359590918332 3.9999999999999996
    vertex 1.2899224042304362 16.91359590918332 0.0
  endloop
endfacet
facet normal 0.8769494432879239 0.48058264004955537 0.0
  outer loop
    vertex 1.2899224042304362 16.91359590918332 3.9999999999999996
    vertex 1.1017365380722526 17.25699052398892 0.0
    vertex 1.1017365380722526 17.25699052398892 3.9999999999999996
  endloop
endfacet
facet normal 0.7226841756311566 0.6911784012050115 0.0
  outer loop
    vertex 1.2899224042304362 16.91359590918332 0.0
    vertex 1.5000000000000004 16.693942410386747 3.9999999999999996
    vertex 1.5000000000000004 16.693942410386747 0.0
  endloop
endfacet
facet normal 0.7226841756311566 0.6911784012050115 0.0
  outer loop
    vertex 1.5000000000000004 16.693942410386747 3.9999999999999996
    vertex 1.2899224042304362 16.91359590918332 0.0
    vertex 1.2899224042304362 16.91359590918332 3.9999999999999996
  endloop
endfacet
facet normal 0.7226841756311584 0.6911784012050095 0.0
  outer loop
    vertex 1.5000000000000004 16.693942410386747 0.0
    vertex 1.5605730587925373 16.630608268314855 3.9999999999999996
    vertex 1.5605730587925373 16.630608268314855 0.0
  endloop
endfacet
facet normal 0.7226841756311584 0.6911784012050095 0.0
  outer loop
    vertex 1.5605730587925373 16.630608268314855 3.9999999999999996
    vertex 1.5000000000000004 16.693942410386747 0.0
    vertex 1.5000000000000004 16.693942410386747 3.9999999999999996
  endloop
endfacet
facet normal 0.5191691756971857 0.8546714965446695 0.0
  outer loop
    vertex 1.5605730587925373 16.630608268314855 3.9999999999999996
    vertex 1.895244106921503 16.427312741449526 0.0
    vertex 1.5605730587925373 16.630608268314855 0.0
  endloop
endfacet
facet normal 0.5191691756971857 0.8546714965446695 0.0
  outer loop
    vertex 1.895244106921503 16.427312741449526 0.0
    vertex 1.5605730587925373 16.630608268314855 3.9999999999999996
    vertex 1.895244106921503 16.427312741449526 3.9999999999999996
  endloop
endfacet
facet normal 0.2802736544070891 0.9599201418062316 0.0
  outer loop
    vertex 1.895244106921503 16.427312741449526 3.9999999999999996
    vertex 2.2711282697574022 16.317563582781457 0.0
    vertex 1.895244106921503 16.427312741449526 0.0
  endloop
endfacet
facet normal 0.2802736544070891 0.9599201418062316 0.0
  outer loop
    vertex 2.2711282697574022 16.317563582781457 0.0
    vertex 1.895244106921503 16.427312741449526 3.9999999999999996
    vertex 2.2711282697574022 16.317563582781457 3.9999999999999996
  endloop
endfacet
facet normal 0.6888268801145139 0.7249258784397928 0.0
  outer loop
    vertex 1.3336664721696863 12.856778869056207 3.9999999999999996
    vertex 1.5000000000000004 12.698728220788016 0.0
    vertex 1.3336664721696863 12.856778869056207 0.0
  endloop
endfacet
facet normal 0.6888268801145139 0.7249258784397928 0.0
  outer loop
    vertex 1.5000000000000004 12.698728220788016 0.0
    vertex 1.3336664721696863 12.856778869056207 3.9999999999999996
    vertex 1.5000000000000004 12.698728220788016 3.9999999999999996
  endloop
endfacet
facet normal 0.6888268801145094 0.7249258784397971 0.0
  outer loop
    vertex 1.5000000000000004 12.698728220788016 3.9999999999999996
    vertex 1.6175319158332537 12.58704901977571 0.0
    vertex 1.5000000000000004 12.698728220788016 0.0
  endloop
endfacet
facet normal 0.6888268801145094 0.7249258784397971 0.0
  outer loop
    vertex 1.6175319158332537 12.58704901977571 0.0
    vertex 1.5000000000000004 12.698728220788016 3.9999999999999996
    vertex 1.6175319158332537 12.58704901977571 3.9999999999999996
  endloop
endfacet
facet normal 0.4777310497168382 0.8785061434824731 0.0
  outer loop
    vertex 1.6175319158332537 12.58704901977571 3.9999999999999996
    vertex 1.9615361010853225 12.39997977530123 0.0
    vertex 1.6175319158332537 12.58704901977571 0.0
  endloop
endfacet
facet normal 0.4777310497168382 0.8785061434824731 0.0
  outer loop
    vertex 1.9615361010853225 12.39997977530123 0.0
    vertex 1.6175319158332537 12.58704901977571 3.9999999999999996
    vertex 1.9615361010853225 12.39997977530123 3.9999999999999996
  endloop
endfacet
facet normal 0.2340786377688479 0.972217666646868 0.0
  outer loop
    vertex 1.9615361010853225 12.39997977530123 3.9999999999999996
    vertex 2.3422357111947614 12.308319595497155 0.0
    vertex 1.9615361010853225 12.39997977530123 0.0
  endloop
endfacet
facet normal 0.2340786377688479 0.972217666646868 0.0
  outer loop
    vertex 2.3422357111947614 12.308319595497155 0.0
    vertex 1.9615361010853225 12.39997977530123 3.9999999999999996
    vertex 2.3422357111947614 12.308319595497155 3.9999999999999996
  endloop
endfacet
facet normal -0.025525846509854743 0.9996741624949379 -0.0
  outer loop
    vertex 2.3422357111947614 12.308319595497155 3.9999999999999996
    vertex 2.5000000000000004 12.312347975115099 0.0
    vertex 2.3422357111947614 12.308319595497155 0.0
  endloop
endfacet
facet normal -0.025525846509854743 0.9996741624949379 -0.0
  outer loop
    vertex 2.5000000000000004 12.312347975115099 0.0
    vertex 2.3422357111947614 12.308319595497155 3.9999999999999996
    vertex 2.5000000000000004 12.312347975115099 3.9999999999999996
  endloop
endfacet
facet normal -0.025525846509847634 0.9996741624949381 -0.0
  outer loop
    vertex 2.5000000000000004 12.312347975115099 3.9999999999999996
    vertex 2.7336866968684608 12.318314970141529 0.0
    vertex 2.5000000000000004 12.312347975115099 0.0
  endloop
endfacet
facet normal -0.025525846509847634 0.9996741624949381 -0.0
  outer loop
    vertex 2.7336866968684608 12.318314970141529 0.0
    vertex 2.5000000000000004 12.312347975115099 3.9999999999999996
    vertex 2.7336866968684608 12.318314970141529 3.9999999999999996
  endloop
endfacet
facet normal -0.2833907865323546 0.9590045162086431 -0.0
  outer loop
    vertex 2.7336866968684608 12.318314970141529 3.9999999999999996
    vertex 3.1092123203361015 12.429284730970469 0.0
    vertex 2.7336866968684608 12.318314970141529 0.0
  endloop
endfacet
facet normal -0.2833907865323546 0.9590045162086431 -0.0
  outer loop
    vertex 3.1092123203361015 12.429284730970469 0.0
    vertex 2.7336866968684608 12.318314970141529 3.9999999999999996
    vertex 3.1092123203361015 12.429284730970469 3.9999999999999996
  endloop
endfacet
facet normal -0.5219431127781022 0.8529802969726237 -0.0
  outer loop
    vertex 3.1092123203361015 12.429284730970469 3.9999999999999996
    vertex 3.4432211309437983 12.63366647216969 0.0
    vertex 3.1092123203361015 12.429284730970469 0.0
  endloop
endfacet
facet normal -0.5219431127781022 0.8529802969726237 -0.0
  outer loop
    vertex 3.4432211309437983 12.63366647216969 0.0
    vertex 3.1092123203361015 12.429284730970469 3.9999999999999996
    vertex 3.4432211309437983 12.63366647216969 3.9999999999999996
  endloop
endfacet
facet normal -0.7249258784397937 0.6888268801145129 -0.0
  outer loop
    vertex 3.712950980224294 12.917531915833255 3.9999999999999996
    vertex 3.4432211309437983 12.63366647216969 0.0
    vertex 3.4432211309437983 12.63366647216969 3.9999999999999996
  endloop
endfacet
facet normal -0.7249258784397937 0.6888268801145129 -0.0
  outer loop
    vertex 3.4432211309437983 12.63366647216969 0.0
    vertex 3.712950980224294 12.917531915833255 3.9999999999999996
    vertex 3.712950980224294 12.917531915833255 0.0
  endloop
endfacet
facet normal -0.8785061434824742 0.47773104971683655 -0.0
  outer loop
    vertex 3.9000202246987743 13.261536101085325 3.9999999999999996
    vertex 3.712950980224294 12.917531915833255 0.0
    vertex 3.712950980224294 12.917531915833255 3.9999999999999996
  endloop
endfacet
facet normal -0.8785061434824742 0.47773104971683655 -0.0
  outer loop
    vertex 3.712950980224294 12.917531915833255 0.0
    vertex 3.9000202246987743 13.261536101085325 3.9999999999999996
    vertex 3.9000202246987743 13.261536101085325 0.0
  endloop
endfacet
facet normal -0.9722176666468679 0.23407863776884813 -0.0
  outer loop
    vertex 3.9916804045028482 13.642235711194763 3.9999999999999996
    vertex 3.9000202246987743 13.261536101085325 0.0
    vertex 3.9000202246987743 13.261536101085325 3.9999999999999996
  endloop
endfacet
facet normal -0.9722176666468679 0.23407863776884813 -0.0
  outer loop
    vertex 3.9000202246987743 13.261536101085325 0.0
    vertex 3.9916804045028482 13.642235711194763 3.9999999999999996
    vertex 3.9916804045028482 13.642235711194763 0.0
  endloop
endfacet
facet normal -0.9996741624949381 -0.025525846509848654 -0.0
  outer loop
    vertex 3.981685029858476 14.033686696868463 3.9999999999999996
    vertex 3.9916804045028482 13.642235711194763 0.0
    vertex 3.9916804045028482 13.642235711194763 3.9999999999999996
  endloop
endfacet
facet normal -0.9996741624949381 -0.025525846509848654 -0.0
  outer loop
    vertex 3.9916804045028482 13.642235711194763 0.0
    vertex 3.981685029858476 14.033686696868463 3.9999999999999996
    vertex 3.981685029858476 14.033686696868463 0.0
  endloop
endfacet
facet normal -0.9590045162086422 -0.28339078653235744 -0.0
  outer loop
    vertex 3.8707152690295334 14.409212320336104 3.9999999999999996
    vertex 3.981685029858476 14.033686696868463 0.0
    vertex 3.981685029858476 14.033686696868463 3.9999999999999996
  endloop
endfacet
facet normal -0.9590045162086422 -0.28339078653235744 -0.0
  outer loop
    vertex 3.981685029858476 14.033686696868463 0.0
    vertex 3.8707152690295334 14.409212320336104 3.9999999999999996
    vertex 3.8707152690295334 14.409212320336104 0.0
  endloop
endfacet
facet normal -0.8529802969726239 -0.521943112778102 -0.0
  outer loop
    vertex 3.6663335278303144 14.7432211309438 3.9999999999999996
    vertex 3.8707152690295334 14.409212320336104 0.0
    vertex 3.8707152690295334 14.409212320336104 3.9999999999999996
  endloop
endfacet
facet normal -0.8529802969726239 -0.521943112778102 -0.0
  outer loop
    vertex 3.8707152690295334 14.409212320336104 0.0
    vertex 3.6663335278303144 14.7432211309438 3.9999999999999996
    vertex 3.6663335278303144 14.7432211309438 0.0
  endloop
endfacet
facet normal -0.688826880114514 -0.7249258784397927 -0.0
  outer loop
    vertex 3.6663335278303144 14.7432211309438 3.9999999999999996
    vertex 3.3824680841667467 15.012950980224296 0.0
    vertex 3.6663335278303144 14.7432211309438 0.0
  endloop
endfacet
facet normal -0.688826880114514 -0.7249258784397927 -0.0
  outer loop
    vertex 3.3824680841667467 15.012950980224296 0.0
    vertex 3.6663335278303144 14.7432211309438 3.9999999999999996
    vertex 3.3824680841667467 15.012950980224296 3.9999999999999996
  endloop
endfacet
facet normal -0.47773104971683517 -0.878506143482475 -0.0
  outer loop
    vertex 3.3824680841667467 15.012950980224296 3.9999999999999996
    vertex 3.038463898914678 15.200020224698777 0.0
    vertex 3.3824680841667467 15.012950980224296 0.0
  endloop
endfacet
facet normal -0.47773104971683517 -0.878506143482475 -0.0
  outer loop
    vertex 3.038463898914678 15.200020224698777 0.0
    vertex 3.3824680841667467 15.012950980224296 3.9999999999999996
    vertex 3.038463898914678 15.200020224698777 3.9999999999999996
  endloop
endfacet
facet normal -0.23407863776884535 -0.9722176666468687 -0.0
  outer loop
    vertex 3.038463898914678 15.200020224698777 3.9999999999999996
    vertex 2.6577642888052404 15.291680404502848 0.0
    vertex 3.038463898914678 15.200020224698777 0.0
  endloop
endfacet
facet normal -0.23407863776884535 -0.9722176666468687 -0.0
  outer loop
    vertex 2.6577642888052404 15.291680404502848 0.0
    vertex 3.038463898914678 15.200020224698777 3.9999999999999996
    vertex 2.6577642888052404 15.291680404502848 3.9999999999999996
  endloop
endfacet
facet normal 0.025525846509845643 -0.999674162494938 -0.0
  outer loop
    vertex 2.6577642888052404 15.291680404502848 3.9999999999999996
    vertex 2.5000000000000004 15.287652024884908 0.0
    vertex 2.6577642888052404 15.291680404502848 0.0
  endloop
endfacet
facet normal 0.025525846509845643 -0.999674162494938 -0.0
  outer loop
    vertex 2.5000000000000004 15.287652024884908 0.0
    vertex 2.6577642888052404 15.291680404502848 3.9999999999999996
    vertex 2.5000000000000004 15.287652024884908 3.9999999999999996
  endloop
endfacet
facet normal 0.025525846509847634 -0.9996741624949381 -0.0
  outer loop
    vertex 2.5000000000000004 15.287652024884908 3.9999999999999996
    vertex 2.2663133031315397 15.281685029858478 0.0
    vertex 2.5000000000000004 15.287652024884908 0.0
  endloop
endfacet
facet normal 0.025525846509847634 -0.9996741624949381 -0.0
  outer loop
    vertex 2.2663133031315397 15.281685029858478 0.0
    vertex 2.5000000000000004 15.287652024884908 3.9999999999999996
    vertex 2.2663133031315397 15.281685029858478 3.9999999999999996
  endloop
endfacet
facet normal 0.28339078653235483 -0.9590045162086429 -0.0
  outer loop
    vertex 2.2663133031315397 15.281685029858478 3.9999999999999996
    vertex 1.8907876796638996 15.170715269029536 0.0
    vertex 2.2663133031315397 15.281685029858478 0.0
  endloop
endfacet
facet normal 0.28339078653235483 -0.9590045162086429 -0.0
  outer loop
    vertex 1.8907876796638996 15.170715269029536 0.0
    vertex 2.2663133031315397 15.281685029858478 3.9999999999999996
    vertex 1.8907876796638996 15.170715269029536 3.9999999999999996
  endloop
endfacet
facet normal 0.5219431127781023 -0.8529802969726235 -0.0
  outer loop
    vertex 1.8907876796638996 15.170715269029536 3.9999999999999996
    vertex 1.5567788690562028 14.966333527830317 0.0
    vertex 1.8907876796638996 15.170715269029536 0.0
  endloop
endfacet
facet normal 0.5219431127781023 -0.8529802969726235 -0.0
  outer loop
    vertex 1.5567788690562028 14.966333527830317 0.0
    vertex 1.8907876796638996 15.170715269029536 3.9999999999999996
    vertex 1.5567788690562028 14.966333527830317 3.9999999999999996
  endloop
endfacet
facet normal 0.7249258784397862 -0.6888268801145208 -0.0
  outer loop
    vertex 1.5567788690562028 14.966333527830317 0.0
    vertex 1.5000000000000004 14.906579077596692 3.9999999999999996
    vertex 1.5000000000000004 14.906579077596692 0.0
  endloop
endfacet
facet normal 0.7249258784397862 -0.6888268801145208 -0.0
  outer loop
    vertex 1.5000000000000004 14.906579077596692 3.9999999999999996
    vertex 1.5567788690562028 14.966333527830317 0.0
    vertex 1.5567788690562028 14.966333527830317 3.9999999999999996
  endloop
endfacet
facet normal 0.7249258784397955 -0.6888268801145111 -0.0
  outer loop
    vertex 1.5000000000000004 14.906579077596692 0.0
    vertex 1.2870490197757074 14.68246808416675 3.9999999999999996
    vertex 1.2870490197757074 14.68246808416675 0.0
  endloop
endfacet
facet normal 0.7249258784397955 -0.6888268801145111 -0.0
  outer loop
    vertex 1.2870490197757074 14.68246808416675 3.9999999999999996
    vertex 1.5000000000000004 14.906579077596692 0.0
    vertex 1.5000000000000004 14.906579077596692 3.9999999999999996
  endloop
endfacet
facet normal 0.8785061434824738 -0.4777310497168372 -0.0
  outer loop
    vertex 1.2870490197757074 14.68246808416675 0.0
    vertex 1.0999797753012264 14.33846389891468 3.9999999999999996
    vertex 1.0999797753012264 14.33846389891468 0.0
  endloop
endfacet
facet normal 0.8785061434824738 -0.4777310497168372 -0.0
  outer loop
    vertex 1.0999797753012264 14.33846389891468 3.9999999999999996
    vertex 1.2870490197757074 14.68246808416675 0.0
    vertex 1.2870490197757074 14.68246808416675 3.9999999999999996
  endloop
endfacet
facet normal 0.9722176666468682 -0.23407863776884774 -0.0
  outer loop
    vertex 1.0999797753012264 14.33846389891468 0.0
    vertex 1.0083195954971529 13.957764288805242 3.9999999999999996
    vertex 1.0083195954971529 13.957764288805242 0.0
  endloop
endfacet
facet normal 0.9722176666468682 -0.23407863776884774 -0.0
  outer loop
    vertex 1.0083195954971529 13.957764288805242 3.9999999999999996
    vertex 1.0999797753012264 14.33846389891468 0.0
    vertex 1.0999797753012264 14.33846389891468 3.9999999999999996
  endloop
endfacet
facet normal 0.9996741624949381 0.025525846509849105 0.0
  outer loop
    vertex 1.0083195954971529 13.957764288805242 0.0
    vertex 1.018314970141525 13.566313303131542 3.9999999999999996
    vertex 1.018314970141525 13.566313303131542 0.0
  endloop
endfacet
facet normal 0.9996741624949381 0.025525846509849105 0.0
  outer loop
    vertex 1.018314970141525 13.566313303131542 3.9999999999999996
    vertex 1.0083195954971529 13.957764288805242 0.0
    vertex 1.0083195954971529 13.957764288805242 3.9999999999999996
  endloop
endfacet
facet normal 0.9590045162086427 0.2833907865323558 0.0
  outer loop
    vertex 1.018314970141525 13.566313303131542 0.0
    vertex 1.129284730970467 13.1907876796639 3.9999999999999996
    vertex 1.129284730970467 13.1907876796639 0.0
  endloop
endfacet
facet normal 0.9590045162086427 0.2833907865323558 0.0
  outer loop
    vertex 1.129284730970467 13.1907876796639 3.9999999999999996
    vertex 1.018314970141525 13.566313303131542 0.0
    vertex 1.018314970141525 13.566313303131542 3.9999999999999996
  endloop
endfacet
facet normal 0.8529802969726233 0.5219431127781026 0.0
  outer loop
    vertex 1.129284730970467 13.1907876796639 0.0
    vertex 1.3336664721696863 12.856778869056207 3.9999999999999996
    vertex 1.3336664721696863 12.856778869056207 0.0
  endloop
endfacet
facet normal 0.8529802969726233 0.5219431127781026 0.0
  outer loop
    vertex 1.3336664721696863 12.856778869056207 3.9999999999999996
    vertex 1.129284730970467 13.1907876796639 0.0
    vertex 1.129284730970467 13.1907876796639 3.9999999999999996
  endloop
endfacet
facet normal -0.14398841266364945 -0.9895793737839339 -0.0
  outer loop
    vertex 2.9078838990884033 11.243478688746201 3.9999999999999996
    vertex 2.5203858164098425 11.299861466432588 0.0
    vertex 2.9078838990884033 11.243478688746201 0.0
  endloop
endfacet
facet normal -0.14398841266364945 -0.9895793737839339 -0.0
  outer loop
    vertex 2.5203858164098425 11.299861466432588 0.0
    vertex 2.9078838990884033 11.243478688746201 3.9999999999999996
    vertex 2.5203858164098425 11.299861466432588 3.9999999999999996
  endloop
endfacet
facet normal 0.11703986209771873 -0.993127217772299 -0.0
  outer loop
    vertex 2.5203858164098425 11.299861466432588 3.9999999999999996
    vertex 2.1314984740321057 11.254031163819862 0.0
    vertex 2.5203858164098425 11.299861466432588 0.0
  endloop
endfacet
facet normal 0.11703986209771873 -0.993127217772299 -0.0
  outer loop
    vertex 2.1314984740321057 11.254031163819862 0.0
    vertex 2.5203858164098425 11.299861466432588 3.9999999999999996
    vertex 2.1314984740321057 11.254031163819862 3.9999999999999996
  endloop
endfacet
facet normal 0.3700920636746466 -0.928995083089809 -0.0
  outer loop
    vertex 2.1314984740321057 11.254031163819862 3.9999999999999996
    vertex 1.7677239016715167 11.109111040292925 0.0
    vertex 2.1314984740321057 11.254031163819862 0.0
  endloop
endfacet
facet normal 0.3700920636746466 -0.928995083089809 -0.0
  outer loop
    vertex 1.7677239016715167 11.109111040292925 0.0
    vertex 2.1314984740321057 11.254031163819862 3.9999999999999996
    vertex 1.7677239016715167 11.109111040292925 3.9999999999999996
  endloop
endfacet
facet normal 0.5979231027182007 -0.8015534687317123 -0.0
  outer loop
    vertex 1.7677239016715167 11.109111040292925 3.9999999999999996
    vertex 1.5000000000000004 10.90940096204631 0.0
    vertex 1.7677239016715167 11.109111040292925 0.0
  endloop
endfacet
facet normal 0.5979231027182007 -0.8015534687317123 -0.0
  outer loop
    vertex 1.5000000000000004 10.90940096204631 0.0
    vertex 1.7677239016715167 11.109111040292925 3.9999999999999996
    vertex 1.5000000000000004 10.90940096204631 3.9999999999999996
  endloop
endfacet
facet normal 0.5979231027182113 -0.8015534687317043 -0.0
  outer loop
    vertex 1.5000000000000004 10.90940096204631 3.9999999999999996
    vertex 1.4538527352685429 10.874977162778308 0.0
    vertex 1.5000000000000004 10.90940096204631 0.0
  endloop
endfacet
facet normal 0.5979231027182113 -0.8015534687317043 -0.0
  outer loop
    vertex 1.4538527352685429 10.874977162778308 0.0
    vertex 1.5000000000000004 10.90940096204631 3.9999999999999996
    vertex 1.4538527352685429 10.874977162778308 3.9999999999999996
  endloop
endfacet
facet normal 0.785006670426159 -0.6194873101092837 -0.0
  outer loop
    vertex 1.4538527352685429 10.874977162778308 0.0
    vertex 1.2112747761169214 10.567585368104105 3.9999999999999996
    vertex 1.2112747761169214 10.567585368104105 0.0
  endloop
endfacet
facet normal 0.785006670426159 -0.6194873101092837 -0.0
  outer loop
    vertex 1.2112747761169214 10.567585368104105 3.9999999999999996
    vertex 1.4538527352685429 10.874977162778308 0.0
    vertex 1.4538527352685429 10.874977162778308 3.9999999999999996
  endloop
endfacet
facet normal 0.9185933308294304 -0.3952041150540981 -0.0
  outer loop
    vertex 1.2112747761169214 10.567585368104105 0.0
    vertex 1.0565213112538019 10.207883899088406 3.9999999999999996
    vertex 1.0565213112538019 10.207883899088406 0.0
  endloop
endfacet
facet normal 0.9185933308294304 -0.3952041150540981 -0.0
  outer loop
    vertex 1.0565213112538019 10.207883899088406 3.9999999999999996
    vertex 1.2112747761169214 10.567585368104105 0.0
    vertex 1.2112747761169214 10.567585368104105 3.9999999999999996
  endloop
endfacet
facet normal 0.9895793737839337 -0.14398841266365034 -0.0
  outer loop
    vertex 1.0565213112538019 10.207883899088406 0.0
    vertex 1.0001385335674147 9.820385816409846 3.9999999999999996
    vertex 1.0001385335674147 9.820385816409846 0.0
  endloop
endfacet
facet normal 0.9895793737839337 -0.14398841266365034 -0.0
  outer loop
    vertex 1.0001385335674147 9.820385816409846 3.9999999999999996
    vertex 1.0565213112538019 10.207883899088406 0.0
    vertex 1.0565213112538019 10.207883899088406 3.9999999999999996
  endloop
endfacet
facet normal 0.9931272177722987 0.11703986209771926 0.0
  outer loop
    vertex 1.0001385335674147 9.820385816409846 0.0
    vertex 1.0459688361801402 9.431498474032109 3.9999999999999996
    vertex 1.0459688361801402 9.431498474032109 0.0
  endloop
endfacet
facet normal 0.9931272177722987 0.11703986209771926 0.0
  outer loop
    vertex 1.0459688361801402 9.431498474032109 3.9999999999999996
    vertex 1.0001385335674147 9.820385816409846 0.0
    vertex 1.0001385335674147 9.820385816409846 3.9999999999999996
  endloop
endfacet
facet normal 0.9289950830898088 0.37009206367464725 0.0
  outer loop
    vertex 1.0459688361801402 9.431498474032109 0.0
    vertex 1.1908889597070782 9.06772390167152 3.9999999999999996
    vertex 1.1908889597070782 9.06772390167152 0.0
  endloop
endfacet
facet normal 0.9289950830898088 0.37009206367464725 0.0
  outer loop
    vertex 1.1908889597070782 9.06772390167152 3.9999999999999996
    vertex 1.0459688361801402 9.431498474032109 0.0
    vertex 1.0459688361801402 9.431498474032109 3.9999999999999996
  endloop
endfacet
facet normal 0.8015534687317111 0.5979231027182023 0.0
  outer loop
    vertex 1.1908889597070782 9.06772390167152 0.0
    vertex 1.425022837221696 8.753852735268545 3.9999999999999996
    vertex 1.425022837221696 8.753852735268545 0.0
  endloop
endfacet
facet normal 0.8015534687317111 0.5979231027182023 0.0
  outer loop
    vertex 1.425022837221696 8.753852735268545 3.9999999999999996
    vertex 1.1908889597070782 9.06772390167152 0.0
    vertex 1.1908889597070782 9.06772390167152 3.9999999999999996
  endloop
endfacet
facet normal 0.6194873101092855 0.7850066704261576 0.0
  outer loop
    vertex 1.425022837221696 8.753852735268545 3.9999999999999996
    vertex 1.732414631895898 8.511274776116924 0.0
    vertex 1.425022837221696 8.753852735268545 0.0
  endloop
endfacet
facet normal 0.6194873101092855 0.7850066704261576 0.0
  outer loop
    vertex 1.732414631895898 8.511274776116924 0.0
    vertex 1.425022837221696 8.753852735268545 3.9999999999999996
    vertex 1.732414631895898 8.511274776116924 3.9999999999999996
  endloop
endfacet
facet normal 0.3952041150540957 0.9185933308294315 0.0
  outer loop
    vertex 1.732414631895898 8.511274776116924 3.9999999999999996
    vertex 2.0921161009115976 8.356521311253806 0.0
    vertex 1.732414631895898 8.511274776116924 0.0
  endloop
endfacet
facet normal 0.3952041150540957 0.9185933308294315 0.0
  outer loop
    vertex 2.0921161009115976 8.356521311253806 0.0
    vertex 1.732414631895898 8.511274776116924 3.9999999999999996
    vertex 2.0921161009115976 8.356521311253806 3.9999999999999996
  endloop
endfacet
facet normal 0.14398841266364923 0.989579373783934 0.0
  outer loop
    vertex 2.0921161009115976 8.356521311253806 3.9999999999999996
    vertex 2.479614183590159 8.300138533567418 0.0
    vertex 2.0921161009115976 8.356521311253806 0.0
  endloop
endfacet
facet normal 0.14398841266364923 0.989579373783934 0.0
  outer loop
    vertex 2.479614183590159 8.300138533567418 0.0
    vertex 2.0921161009115976 8.356521311253806 3.9999999999999996
    vertex 2.479614183590159 8.300138533567418 3.9999999999999996
  endloop
endfacet
facet normal -0.11703986209771883 0.9931272177722988 -0.0
  outer loop
    vertex 2.479614183590159 8.300138533567418 3.9999999999999996
    vertex 2.868501525967895 8.345968836180143 0.0
    vertex 2.479614183590159 8.300138533567418 0.0
  endloop
endfacet
facet normal -0.11703986209771883 0.9931272177722988 -0.0
  outer loop
    vertex 2.868501525967895 8.345968836180143 0.0
    vertex 2.479614183590159 8.300138533567418 3.9999999999999996
    vertex 2.868501525967895 8.345968836180143 3.9999999999999996
  endloop
endfacet
facet normal -0.37009206367465003 0.9289950830898077 -0.0
  outer loop
    vertex 2.868501525967895 8.345968836180143 3.9999999999999996
    vertex 3.2322760983284837 8.490888959707082 0.0
    vertex 2.868501525967895 8.345968836180143 0.0
  endloop
endfacet
facet normal -0.37009206367465003 0.9289950830898077 -0.0
  outer loop
    vertex 3.2322760983284837 8.490888959707082 0.0
    vertex 2.868501525967895 8.345968836180143 3.9999999999999996
    vertex 3.2322760983284837 8.490888959707082 3.9999999999999996
  endloop
endfacet
facet normal -0.5979231027182015 0.8015534687317118 -0.0
  outer loop
    vertex 3.2322760983284837 8.490888959707082 3.9999999999999996
    vertex 3.5461472647314585 8.7250228372217 0.0
    vertex 3.2322760983284837 8.490888959707082 0.0
  endloop
endfacet
facet normal -0.5979231027182015 0.8015534687317118 -0.0
  outer loop
    vertex 3.5461472647314585 8.7250228372217 0.0
    vertex 3.2322760983284837 8.490888959707082 3.9999999999999996
    vertex 3.5461472647314585 8.7250228372217 3.9999999999999996
  endloop
endfacet
facet normal -0.785006670426158 0.6194873101092848 -0.0
  outer loop
    vertex 3.78872522388308 9.032414631895902 3.9999999999999996
    vertex 3.5461472647314585 8.7250228372217 0.0
    vertex 3.5461472647314585 8.7250228372217 3.9999999999999996
  endloop
endfacet
facet normal -0.785006670426158 0.6194873101092848 -0.0
  outer loop
    vertex 3.5461472647314585 8.7250228372217 0.0
    vertex 3.78872522388308 9.032414631895902 3.9999999999999996
    vertex 3.78872522388308 9.032414631895902 0.0
  endloop
endfacet
facet normal -0.9185933308294315 0.3952041150540957 -0.0
  outer loop
    vertex 3.9434786887461986 9.3921161009116 3.9999999999999996
    vertex 3.78872522388308 9.032414631895902 0.0
    vertex 3.78872522388308 9.032414631895902 3.9999999999999996
  endloop
endfacet
facet normal -0.9185933308294315 0.3952041150540957 -0.0
  outer loop
    vertex 3.78872522388308 9.032414631895902 0.0
    vertex 3.9434786887461986 9.3921161009116 3.9999999999999996
    vertex 3.9434786887461986 9.3921161009116 0.0
  endloop
endfacet
facet normal -0.9895793737839337 0.14398841266365123 -0.0
  outer loop
    vertex 3.9998614664325864 9.779614183590162 3.9999999999999996
    vertex 3.9434786887461986 9.3921161009116 0.0
    vertex 3.9434786887461986 9.3921161009116 3.9999999999999996
  endloop
endfacet
facet normal -0.9895793737839337 0.14398841266365123 -0.0
  outer loop
    vertex 3.9434786887461986 9.3921161009116 0.0
    vertex 3.9998614664325864 9.779614183590162 3.9999999999999996
    vertex 3.9998614664325864 9.779614183590162 0.0
  endloop
endfacet
facet normal -0.9931272177722988 -0.11703986209771883 -0.0
  outer loop
    vertex 3.954031163819861 10.168501525967898 3.9999999999999996
    vertex 3.9998614664325864 9.779614183590162 0.0
    vertex 3.9998614664325864 9.779614183590162 3.9999999999999996
  endloop
endfacet
facet normal -0.9931272177722988 -0.11703986209771883 -0.0
  outer loop
    vertex 3.9998614664325864 9.779614183590162 0.0
    vertex 3.954031163819861 10.168501525967898 3.9999999999999996
    vertex 3.954031163819861 10.168501525967898 0.0
  endloop
endfacet
facet normal -0.9289950830898077 -0.37009206367465003 -0.0
  outer loop
    vertex 3.809111040292922 10.532276098328486 3.9999999999999996
    vertex 3.954031163819861 10.168501525967898 0.0
    vertex 3.954031163819861 10.168501525967898 3.9999999999999996
  endloop
endfacet
facet normal -0.9289950830898077 -0.37009206367465003 -0.0
  outer loop
    vertex 3.954031163819861 10.168501525967898 0.0
    vertex 3.809111040292922 10.532276098328486 3.9999999999999996
    vertex 3.809111040292922 10.532276098328486 0.0
  endloop
endfacet
facet normal -0.8015534687317111 -0.5979231027182023 -0.0
  outer loop
    vertex 3.5749771627783047 10.84614726473146 3.9999999999999996
    vertex 3.809111040292922 10.532276098328486 0.0
    vertex 3.809111040292922 10.532276098328486 3.9999999999999996
  endloop
endfacet
facet normal -0.8015534687317111 -0.5979231027182023 -0.0
  outer loop
    vertex 3.809111040292922 10.532276098328486 0.0
    vertex 3.5749771627783047 10.84614726473146 3.9999999999999996
    vertex 3.5749771627783047 10.84614726473146 0.0
  endloop
endfacet
facet normal -0.6194873101092851 -0.7850066704261579 -0.0
  outer loop
    vertex 3.5749771627783047 10.84614726473146 3.9999999999999996
    vertex 3.267585368104102 11.088725223883083 0.0
    vertex 3.5749771627783047 10.84614726473146 0.0
  endloop
endfacet
facet normal -0.6194873101092851 -0.7850066704261579 -0.0
  outer loop
    vertex 3.267585368104102 11.088725223883083 0.0
    vertex 3.5749771627783047 10.84614726473146 3.9999999999999996
    vertex 3.267585368104102 11.088725223883083 3.9999999999999996
  endloop
endfacet
facet normal -0.3952041150540963 -0.9185933308294312 -0.0
  outer loop
    vertex 3.267585368104102 11.088725223883083 3.9999999999999996
    vertex 2.9078838990884033 11.243478688746201 0.0
    vertex 3.267585368104102 11.088725223883083 0.0
  endloop
endfacet
facet normal -0.3952041150540963 -0.9185933308294312 -0.0
  outer loop
    vertex 2.9078838990884033 11.243478688746201 0.0
    vertex 3.267585368104102 11.088725223883083 3.9999999999999996
    vertex 2.9078838990884033 11.243478688746201 3.9999999999999996
  endloop
endfacet
endsolid LED Shroud
